<?xml version="1.0" encoding="utf-8"?>
<!-- Generator: Adobe Illustrator 24.0.2, SVG Export Plug-In . SVG Version: 6.00 Build 0)  -->
<svg version="1.1" id="Capa_1" xmlns="http://www.w3.org/2000/svg" xmlns:xlink="http://www.w3.org/1999/xlink" x="0px" y="0px"
	 viewBox="0 0 835 835" style="enable-background:new 0 0 835 835;" xml:space="preserve">
<style type="text/css">
	.st0{fill:#ACAA5E;}
</style>
<g transform="translate(0.000000,835.000000) scale(0.100000,-0.100000)">
	<path class="st0" d="M4800,7479c-230-29-454-116-655-253c-110-75-286-243-366-349c-172-228-286-499-336-797c-12-72-17-196-20-505
		l-5-411l-519,4l-519,4v-639v-640l107-6c58-4,293-7,521-7h415l-5-1560l-5-1560h642h642l6,1052c4,578,7,1280,7,1560v508h645h645v323
		c0,178,3,466,7,640l6,317h-651h-652v348c0,369,6,432,50,525c30,64,96,136,145,158c37,17,78,19,573,19h532v633v634l-202,6
		C5534,7492,4881,7489,4800,7479z"/>
</g>
</svg>
