<?xml version="1.0" encoding="utf-8"?>
<!-- Generator: Adobe Illustrator 24.0.2, SVG Export Plug-In . SVG Version: 6.00 Build 0)  -->
<svg version="1.1" id="Capa_1" xmlns="http://www.w3.org/2000/svg" xmlns:xlink="http://www.w3.org/1999/xlink" x="0px" y="0px"
	 viewBox="0 0 834 835" style="enable-background:new 0 0 834 835;" xml:space="preserve">
<style type="text/css">
	.st0{fill:#ACAA5E;}
</style>
<g transform="translate(0.000000,835.000000) scale(0.100000,-0.100000)">
	<path class="st0" d="M2430,7280c-352-28-667-175-920-429c-210-211-336-445-402-744l-23-102V4170c0-1736,1-1840,18-1925
		c63-308,193-553,406-765c261-260,556-397,923-430c144-13,3380-13,3533-1c662,56,1183,513,1327,1164l23,102v1850v1850l-23,102
		c-133,601-586,1037-1197,1150c-82,16-248,17-1830,19C3308,7287,2482,7284,2430,7280z M6364,6539c73-27,148-96,183-167
		c24-50,28-68,28-147c0-73-5-99-23-136c-37-75-87-125-160-161c-59-29-76-33-147-33s-88,4-147,33c-73,36-123,86-160,161
		c-18,37-23,63-23,136c0,79,4,97,28,147c34,70,110,140,180,167C6193,6566,6292,6566,6364,6539z M4590,6115c388-81,708-250,988-520
		c747-719,818-1876,165-2685c-77-96-245-258-345-333c-217-162-456-276-717-341c-182-46-235-51-491-51c-228,1-254,3-375,28
		c-763,162-1351,719-1540,1461c-46,182-59,293-59,496c0,196,17,327,65,508c180,686,732,1234,1421,1411c198,51,287,60,538,56
		C4436,6142,4481,6138,4590,6115z"/>
	<path class="st0" d="M3995,5495c-284-46-539-177-745-384c-259-261-390-579-390-946c0-224,46-418,145-613c238-467,729-752,1255-728
		c203,9,352,47,535,136c138,67,258,155,373,274c145,151,245,315,307,501c91,272,92,588,1,858c-111,330-362,619-671,772
		c-126,62-203,89-330,117C4354,5508,4116,5514,3995,5495z"/>
</g>
</svg>
