<?xml version="1.0" encoding="utf-8"?>
<!-- Generator: Adobe Illustrator 24.0.2, SVG Export Plug-In . SVG Version: 6.00 Build 0)  -->
<svg version="1.1" id="Capa_1" xmlns="http://www.w3.org/2000/svg" xmlns:xlink="http://www.w3.org/1999/xlink" x="0px" y="0px"
	 viewBox="0 0 835 835" style="enable-background:new 0 0 835 835;" xml:space="preserve">
<style type="text/css">
	.st0{fill:#ACAA5E;}
</style>
<g transform="translate(0.000000,835.000000) scale(0.100000,-0.100000)">
	<path class="st0" d="M3600,6970c-1279-29-1760-50-2105-96C680,6768,369,6436,262,5559c-15-129-17-257-17-1224
		c0-1098,5-1297,41-1615c67-599,269-955,636-1124c275-127,659-190,1383-227c321-17,2165-17,2820-1c966,24,1239,32,1385,43
		c449,32,859,118,1076,224c105,51,216,148,289,250c165,230,263,601,306,1155c13,178,19,1565,8,1950c-24,804-119,1217-345,1497
		c-143,177-346,286-641,343c-248,48-806,98-1443,131C5490,6974,4076,6980,3600,6970z M4438,4783c560-328,1021-600,1026-604
		c4-4-56-45-135-92c-79-46-529-310-999-587c-470-276-870-511-887-522l-33-20v1211c0,666,3,1211,6,1211S3879,5112,4438,4783z"/>
</g>
</svg>
