<?xml version="1.0" encoding="utf-8"?>
<!-- Generator: Adobe Illustrator 24.0.2, SVG Export Plug-In . SVG Version: 6.00 Build 0)  -->
<svg version="1.1" id="Capa_1" xmlns="http://www.w3.org/2000/svg" xmlns:xlink="http://www.w3.org/1999/xlink" x="0px" y="0px"
	 viewBox="0 0 400 400" style="enable-background:new 0 0 400 400;" xml:space="preserve">
<style type="text/css">
	.st0{fill:#FFFFFF;}
	.st1{fill-rule:evenodd;clip-rule:evenodd;fill:#ABA95D;}
	.st2{fill-rule:evenodd;clip-rule:evenodd;fill:#FFFFFF;}
	.st3{fill:#ACAA5E;}
	.st4{fill:none;stroke:#ACAA5E;stroke-miterlimit:10;}
	.st5{fill-rule:evenodd;clip-rule:evenodd;fill:#ACAA5E;}
</style>
<g id="YAMADA-HA_type">
	<g>
		<g>
			<circle class="st0" cx="199.9" cy="200.9" r="197.19"/>
			<path class="st0" d="M199.9,398.81C90.77,398.81,2,310.04,2,200.9S90.77,3,199.9,3s197.9,88.77,197.9,197.9
				S309.04,398.81,199.9,398.81z M199.9,4.43C91.57,4.43,3.43,92.57,3.43,200.9S91.57,397.37,199.9,397.37
				s196.47-88.14,196.47-196.47S308.23,4.43,199.9,4.43z"/>
		</g>
		<path class="st1" d="M100.55,124.78c20.59-3.44,23.29-4.82,40.44-18.38c0,20.77-9.44,30.92-24.01,37.6
			c0,0.69-15.98,32.73-16.84,37.03c6.34,7.72,21.45,23.81,29,36.86c12.19,3.1,41.67,5.48,55.56,16.46c0,0.34,18.7,8.46,19.39,14.11
			c0.17,0.17-9.24,17.15-9.24,16.64c-12.88-6.34-35.74-26.27-81.2-24.04c-9.61-12.53-27.76-41.01-41.85-54.21
			C76.29,178.79,96.79,140.9,100.55,124.78z"/>
		<path class="st1" d="M139.87,162.33c3.1-0.69,11.87-1.84,17.04-0.46c0.17-10.64-6.05-73.71,20.36-77.5
			c33.79-5.82,13.57,73.94,2.41,98.64c-17.67,25.21-30.63,12.36-35.25-9.44c-7.37,1.72-16.64,0.95-18.87,0.77
			c6.51,40.67,30.66,46.26,57.25,34.79c19.73,11.5,1.84,25.61,1.84,25.61s17.04,11.67,19.42,13.57
			c0.34-0.17,10.04-23.83,15.34-24.69c10.47-1.55,27.16,14.31,47.9,20.34c8.4,1.38,48.82-18.07,58.08-66.25
			c-0.17-8.92-5.11-15.23-7.51-17.29c4.62-15.6-3.99-26.56-11.53-28.6c3.1-17.15-13.97-19.42-28.91-17.55
			c-9.41-39.01-29.05-47.84-64.22-32.73c-16.12-21.97-45.55-17.41-56.19-8.83C146.38,81.62,139.7,144.66,139.87,162.33z"/>
		<path class="st2" d="M213.99,105.45c16.64-12.19,42.71-19.73,45.98,10.99c-4.47,24.35-27.45,69.29-31.92,76.35
			c-5.31,11.16-21.8,18.53-31.23,9.26c-2.7-9.64,3.07-20.16,6.74-32.93C209.83,147.44,211.78,131.84,213.99,105.45z"/>
		<path class="st2" d="M274.02,128.11c28.34,4.99,28.42,33.9,3.07,61.89c-6.11,7.72-12.02,15.37-21.43,22.49
			c-10.64,10.3-17.84,4.13-17.67-0.17C238.34,199.47,268.54,150.39,274.02,128.11z"/>
		<path class="st2" d="M305.77,173.22c16.12-1.55-1.72,23.15-11.33,36.54c-8.58,14.57-26.07,29.69-32.24,14.74
			C285.52,205.12,302.67,178.88,305.77,173.22z"/>
		<path class="st3" d="M200.1,347.95c-81.2,0-147.25-66.05-147.25-147.25S118.91,53.45,200.1,53.45S347.35,119.5,347.35,200.7
			S281.3,347.95,200.1,347.95z M200.1,56.32c-79.62,0-144.38,64.76-144.38,144.38s64.76,144.38,144.38,144.38
			s144.38-64.76,144.38-144.38S279.72,56.32,200.1,56.32z"/>
		<circle class="st4" cx="200.42" cy="200.79" r="196.58"/>
		<circle class="st5" cx="31.77" cy="168.75" r="11.73"/>
		<path class="st5" d="M379.42,168.75c0,6.48-5.25,11.73-11.73,11.73c-6.48,0-11.73-5.25-11.73-11.73c0-6.48,5.25-11.73,11.73-11.73
			C374.17,157.02,379.42,162.27,379.42,168.75z"/>
		<g>
			<path class="st3" d="M68.05,84.25l-2.01,2.52c-0.89-0.69-1.52-1.15-1.95-1.38c-0.8-0.43-1.61-0.34-2.38,0.23
				c-0.49,0.37-1.2,1.15-2.18,2.32c-1.35,1.66-2.15,2.78-2.47,3.36c-0.57,1.03-0.63,1.92-0.17,2.72c0.29,0.46,0.75,0.95,1.41,1.49
				c0.83,0.66,1.55,1.06,2.15,1.23c0.69,0.17,1.43-0.17,2.29-1c0.32-0.32,1.15-1.26,2.55-2.87c1.55-1.78,2.64-2.95,3.3-3.5
				c1.35-1.12,2.7-1.49,4.1-1.18c0.89,0.23,2.04,0.86,3.41,1.95c1.98,1.58,3.1,3.01,3.33,4.24c0.23,1.29-0.11,2.61-0.98,3.96
				c-0.66,1.03-1.66,2.38-2.95,4.02c-1.58,1.98-2.75,3.24-3.5,3.73c-1.78,1.18-3.7,1.12-5.82-0.2c-0.46-0.29-1.26-0.86-2.44-1.75
				l2.01-2.52c0.34,0.29,0.6,0.46,0.69,0.54c0.92,0.72,1.63,1.18,2.15,1.38c0.52,0.2,1.03,0.26,1.52,0.09
				c0.46-0.14,0.95-0.52,1.52-1.18c0.6-0.69,1.32-1.55,2.12-2.55c1.09-1.38,1.81-2.38,2.15-3.04c0.34-0.66,0.46-1.23,0.37-1.72
				c-0.11-0.6-0.92-1.52-2.41-2.7c-0.72-0.57-1.32-0.92-1.78-1.03c-0.66-0.17-1.38,0.09-2.15,0.86c-0.37,0.37-1.26,1.35-2.67,2.98
				c-1.41,1.61-2.29,2.58-2.7,2.98c-1.29,1.23-2.64,1.81-4.02,1.78c-1.18,0-2.5-0.6-3.99-1.81c-2.15-1.72-3.21-3.36-3.18-4.9
				c0.03-1.2,0.43-2.41,1.26-3.67c0.6-0.89,1.35-1.86,2.21-2.98c1.66-2.09,2.95-3.44,3.84-4.02c1.81-1.18,3.76-1.03,5.85,0.43
				C66.85,83.31,67.34,83.68,68.05,84.25z"/>
			<path class="st3" d="M97.48,49.23l14.31,18.84l-2.55,1.95l-6.48-8.52L92,69.68l6.48,8.52l-2.55,1.95L81.59,61.31l2.55-1.95
				l6.14,8.09l10.76-8.17l-6.14-8.09L97.48,49.23z"/>
			<path class="st3" d="M123.52,34.87l10.1,21.4l-2.9,1.38l-10.1-21.4L123.52,34.87z"/>
			<path class="st3" d="M157.45,26.29l5.02,19.99l-3.13,0.77l-5.02-19.99l-7.6,1.92l-0.75-2.95l18.24-4.59l0.75,2.95L157.45,26.29z"
				/>
			<path class="st3" d="M198.61,17.91c1.78-0.03,3.1,0.03,4.02,0.14c0.92,0.11,1.72,0.32,2.41,0.6c2.01,0.83,3.21,2.75,3.61,5.76
				c0.11,0.8,0.17,2.27,0.2,4.42c0.03,3.64,0,5.94-0.11,6.88c-0.2,1.55-0.54,2.72-1.03,3.59s-1.23,1.52-2.21,2.01
				c-1,0.49-2.29,0.77-3.87,0.86c-0.83,0.06-1.86,0.09-3.13,0.09c-2.12,0.03-3.61-0.03-4.53-0.14c-0.89-0.11-1.72-0.34-2.5-0.69
				c-1.43-0.69-2.38-1.86-2.87-3.53c-0.34-1.15-0.54-2.52-0.57-4.1c-0.03-1.03-0.06-2.58-0.09-4.65c-0.03-2.18,0.03-3.7,0.11-4.56
				c0.34-2.98,1.52-4.9,3.5-5.79c0.89-0.4,2.04-0.63,3.5-0.75C196.03,17.94,197.21,17.91,198.61,17.91z M198.01,20.87
				c-1.55,0-2.67,0.06-3.33,0.11s-1.2,0.2-1.66,0.4c-0.8,0.34-1.35,1.09-1.61,2.27c-0.17,0.8-0.26,1.75-0.26,2.84l0.03,3.67
				c0.03,2.87,0.06,4.56,0.11,5.11c0.11,1.09,0.32,1.92,0.6,2.47s0.72,0.95,1.29,1.18c0.52,0.2,1.26,0.34,2.24,0.37
				c0.77,0.03,1.81,0.06,3.04,0.03c1.66,0,2.87-0.06,3.59-0.11s1.29-0.2,1.72-0.37c0.8-0.34,1.35-1.09,1.61-2.27
				c0.17-0.83,0.26-1.78,0.26-2.84l-0.03-3.67c-0.03-2.87-0.06-4.56-0.11-5.11c-0.11-1.09-0.32-1.92-0.6-2.47
				c-0.29-0.54-0.72-0.95-1.29-1.18c-0.52-0.2-1.29-0.34-2.32-0.37C200.5,20.87,199.42,20.84,198.01,20.87z"/>
			<path class="st3" d="M229.62,31.37l9.38,1.92l-0.6,3.01l-9.38-1.92L229.62,31.37z"/>
			<path class="st3" d="M254.77,51.41l9.49-21.68l10.93,4.79c1.92,0.83,3.24,1.81,3.96,2.9c0.63,0.95,0.86,2.09,0.66,3.38
				c-0.11,0.77-0.43,1.72-0.92,2.84c-0.8,1.86-1.63,3.1-2.5,3.73c-0.92,0.69-2.07,0.8-3.47,0.34c2.07,1.06,2.52,2.9,1.41,5.51
				l-2.47,5.68l-2.95-1.29l2.24-5.11c0.57-1.32,0.69-2.38,0.29-3.13c-0.43-0.75-1.26-1.35-2.52-1.89l-7.49-3.27l-3.73,8.52
				L254.77,51.41z M262.6,41.58l7.2,3.15c1.46,0.63,2.61,0.92,3.44,0.8c0.95-0.11,1.75-0.89,2.35-2.29c0.83-1.92,1.2-3.18,1.06-3.84
				c-0.17-0.8-1.03-1.52-2.58-2.21l-8-3.5L262.6,41.58z"/>
			<path class="st3" d="M318.5,61.83l-15.75,5.39l-5.97,7.83l-2.55-1.95l5.97-7.83l1.15-16.49l3.01,2.29l-0.75,12.53l11.85-4.1
				L318.5,61.83z"/>
			<path class="st3" d="M346.06,91.6l2.01,2.5l-12.82,10.3c-1.58,1.26-2.87,2.01-3.84,2.24c-1.49,0.34-2.95,0-4.39-1.03
				c-0.77-0.57-1.98-1.89-3.67-3.99c-1.2-1.49-2.01-2.58-2.47-3.27c-0.46-0.69-0.77-1.38-1-2.01c-0.46-1.43-0.43-2.72,0.14-3.87
				c0.46-0.95,1.46-2.04,3.01-3.27l12.82-10.3l2.01,2.5l-12.82,10.3c-1.32,1.06-2.07,1.84-2.27,2.38c-0.26,0.66-0.14,1.49,0.37,2.44
				c0.32,0.57,1.03,1.55,2.15,2.98c1.66,2.07,2.87,3.36,3.59,3.81c0.66,0.43,1.43,0.43,2.32,0c0.52-0.23,1.18-0.69,2.04-1.38
				L346.06,91.6z"/>
		</g>
		<g>
			<path class="st3" d="M42.33,253.91l-0.86-3.07c1.06-0.29,1.81-0.54,2.24-0.77c0.8-0.4,1.2-1.09,1.2-2.04c0-0.6-0.2-1.63-0.6-3.1
				c-0.57-2.07-1-3.36-1.26-3.93c-0.49-1.06-1.18-1.63-2.09-1.72c-0.54-0.06-1.2,0.06-2.01,0.26c-1.03,0.29-1.78,0.63-2.24,1
				c-0.52,0.46-0.72,1.26-0.54,2.44c0.06,0.43,0.34,1.66,0.83,3.73c0.54,2.27,0.83,3.84,0.92,4.7c0.11,1.72-0.37,3.04-1.46,3.99
				c-0.69,0.6-1.89,1.12-3.56,1.61c-2.44,0.69-4.22,0.75-5.36,0.2c-1.15-0.57-2.04-1.61-2.61-3.1c-0.43-1.15-0.95-2.72-1.49-4.7
				c-0.69-2.44-1-4.1-0.98-4.99c0.09-2.12,1.26-3.64,3.56-4.56c0.49-0.2,1.43-0.52,2.84-0.95l0.86,3.07
				c-0.43,0.11-0.72,0.2-0.86,0.23c-1.12,0.32-1.89,0.63-2.38,0.95c-0.49,0.29-0.8,0.69-0.95,1.18c-0.14,0.46-0.14,1.09,0.06,1.89
				c0.2,0.89,0.49,1.98,0.83,3.18c0.46,1.69,0.86,2.84,1.18,3.5c0.32,0.66,0.72,1.09,1.18,1.29c0.57,0.26,1.75,0.14,3.59-0.37
				c0.89-0.23,1.49-0.52,1.86-0.83c0.54-0.43,0.72-1.18,0.57-2.24c-0.09-0.52-0.34-1.81-0.86-3.87c-0.49-2.07-0.75-3.36-0.83-3.9
				c-0.26-1.78,0.03-3.21,0.86-4.3c0.69-0.92,1.95-1.63,3.79-2.15c2.64-0.75,4.56-0.63,5.79,0.29c0.95,0.72,1.69,1.78,2.21,3.15
				c0.37,1,0.72,2.18,1.09,3.5c0.72,2.58,1.03,4.39,0.98,5.42c-0.11,2.12-1.35,3.61-3.76,4.47
				C43.82,253.48,43.22,253.65,42.33,253.91z"/>
			<path class="st3" d="M62.95,282.64l-20.91,10.78l-1.46-2.84l9.46-4.88l-6.17-11.93l-9.46,4.88l-1.46-2.84l20.91-10.78l1.46,2.84
				l-8.98,4.62l6.17,11.93l8.98-4.62L62.95,282.64z"/>
			<path class="st3" d="M81.3,307.23l2.04,2.47L70.75,320.1c-1.55,1.29-2.81,2.04-3.79,2.29c-1.49,0.37-2.95,0.06-4.39-0.98
				c-0.77-0.54-2.01-1.86-3.7-3.9c-1.2-1.46-2.04-2.52-2.5-3.21c-0.46-0.69-0.8-1.35-1.03-1.98c-0.49-1.43-0.46-2.7,0.09-3.84
				c0.46-0.95,1.43-2.04,2.95-3.3l12.59-10.41l2.04,2.47l-12.59,10.41c-1.29,1.06-2.04,1.86-2.24,2.38
				c-0.26,0.66-0.11,1.46,0.4,2.41c0.32,0.57,1.03,1.55,2.18,2.93c1.69,2.04,2.9,3.3,3.61,3.73c0.66,0.43,1.43,0.4,2.32-0.03
				c0.49-0.23,1.18-0.72,2.01-1.41L81.3,307.23z"/>
			<path class="st3" d="M96.25,321.8l-6.25,7.8l1.66,1.32l13.82-1.75l3.3,2.64l-15.77,1.98l2.07,17.18l-3.44-2.75l-1.78-15
				l-1.66-1.32l-6.63,8.26l-2.5-2.01l14.68-18.36L96.25,321.8z"/>
			<path class="st3" d="M126.99,342.07c1.55,0.8,2.72,1.49,3.47,2.01s1.38,1.06,1.84,1.66c1.38,1.66,1.52,3.93,0.49,6.74
				c-0.29,0.77-0.89,2.09-1.89,3.96c-1.66,3.21-2.78,5.19-3.33,5.97c-0.89,1.26-1.75,2.15-2.58,2.67c-0.83,0.52-1.78,0.77-2.87,0.72
				c-1.12-0.03-2.38-0.37-3.81-1.06c-0.75-0.34-1.66-0.8-2.78-1.38c-1.86-0.98-3.18-1.72-3.9-2.24c-0.75-0.52-1.35-1.09-1.86-1.78
				c-0.92-1.26-1.2-2.75-0.89-4.45c0.23-1.18,0.72-2.47,1.41-3.87c0.46-0.92,1.15-2.29,2.09-4.13c1-1.92,1.75-3.24,2.24-3.93
				c1.69-2.44,3.61-3.59,5.79-3.44c0.98,0.06,2.09,0.4,3.41,0.98C124.7,340.9,125.73,341.41,126.99,342.07z M125.07,344.4
				c-1.38-0.72-2.35-1.2-2.95-1.43c-0.6-0.26-1.15-0.4-1.63-0.43c-0.86-0.09-1.69,0.34-2.47,1.23c-0.54,0.63-1.06,1.41-1.55,2.38
				l-1.69,3.18c-1.32,2.52-2.07,4.04-2.27,4.53c-0.4,1-0.6,1.84-0.63,2.44c0,0.6,0.17,1.18,0.57,1.63c0.34,0.43,0.95,0.89,1.81,1.38
				c0.66,0.4,1.55,0.89,2.67,1.46c1.46,0.77,2.55,1.29,3.18,1.58c0.66,0.29,1.2,0.43,1.66,0.49c0.86,0.09,1.69-0.34,2.5-1.23
				c0.54-0.63,1.06-1.43,1.55-2.38l1.69-3.24c1.32-2.52,2.07-4.04,2.27-4.53c0.4-1.03,0.63-1.84,0.63-2.44c0-0.6-0.2-1.15-0.6-1.63
				c-0.37-0.43-0.98-0.89-1.86-1.41C127.28,345.54,126.31,345.03,125.07,344.4z"/>
			<path class="st3" d="M151.55,352.71l-2.7,9.64l2.07,0.57l12.05-7.03l4.07,1.15l-13.74,7.97l8.63,15l-4.24-1.2l-7.51-13.11
				l-2.07-0.57l-2.87,10.21l-3.07-0.86l6.37-22.66L151.55,352.71z"/>
			<path class="st3" d="M192.59,378.76l-11.56-0.86l-2.21,4.7l-3.38-0.26l10.64-22.8l4.04,0.29l7.34,24.12l-3.38-0.2L192.59,378.76z
				 M191.73,376l-3.84-12.88l-5.65,12.19L191.73,376z"/>
			<path class="st3" d="M214.44,359.54l1.86,23.46l-3.18,0.26l-1.86-23.46L214.44,359.54z"/>
			<path class="st3" d="M264.44,346.81l2.98-1.18l5.97,15.23c0.72,1.86,1.06,3.3,0.98,4.33c-0.11,1.52-0.86,2.81-2.29,3.84
				c-0.77,0.57-2.41,1.32-4.88,2.29c-1.75,0.69-3.04,1.15-3.84,1.38c-0.8,0.23-1.55,0.34-2.21,0.34c-1.49,0.03-2.72-0.4-3.64-1.29
				c-0.75-0.72-1.49-2.01-2.21-3.84l-5.97-15.23l2.98-1.18l5.97,15.23c0.6,1.55,1.12,2.5,1.58,2.87c0.57,0.43,1.38,0.57,2.41,0.37
				c0.63-0.11,1.78-0.52,3.44-1.15c2.47-0.98,4.02-1.72,4.68-2.27c0.6-0.49,0.83-1.23,0.69-2.21c-0.09-0.54-0.32-1.32-0.69-2.35
				L264.44,346.81z"/>
			<path class="st3" d="M297.65,327.33l13.11,19.53l-3.93,2.64l-22.17-9.87l11.47,17.07l-2.64,1.78l-13.11-19.53l3.9-2.64l22.2,9.87
				l-11.47-17.07L297.65,327.33z"/>
			<path class="st3" d="M310.81,315.51l16.18,17.09l-2.32,2.21l-16.18-17.07L310.81,315.51z"/>
			<path class="st3" d="M326.67,297.22c1.06-1.41,1.92-2.41,2.58-3.07c0.66-0.66,1.29-1.18,1.95-1.52c1.89-1.06,4.13-0.83,6.71,0.69
				c0.72,0.4,1.89,1.26,3.59,2.55c2.87,2.21,4.65,3.64,5.31,4.3c1.09,1.09,1.81,2.09,2.18,2.98c0.37,0.89,0.43,1.89,0.23,2.95
				c-0.23,1.09-0.77,2.27-1.69,3.56c-0.46,0.69-1.09,1.49-1.84,2.5c-1.29,1.66-2.24,2.81-2.87,3.47c-0.63,0.66-1.32,1.15-2.07,1.52
				c-1.41,0.69-2.93,0.72-4.53,0.09c-1.12-0.43-2.29-1.12-3.56-2.07c-0.83-0.6-2.07-1.52-3.7-2.78c-1.72-1.32-2.9-2.29-3.5-2.87
				c-2.12-2.09-2.9-4.19-2.38-6.28c0.23-0.95,0.75-2.01,1.55-3.18C325.13,299.28,325.81,298.33,326.67,297.22z M328.63,299.51
				c-0.95,1.23-1.58,2.12-1.92,2.67c-0.34,0.54-0.6,1.06-0.72,1.55c-0.23,0.83,0.03,1.72,0.77,2.64c0.52,0.63,1.2,1.29,2.07,1.92
				l2.9,2.21c2.27,1.72,3.61,2.72,4.07,3.01c0.92,0.57,1.69,0.92,2.29,1.03c0.6,0.11,1.18,0.03,1.72-0.29
				c0.49-0.29,1.03-0.77,1.66-1.55c0.52-0.6,1.15-1.38,1.89-2.38c1-1.32,1.72-2.27,2.09-2.87c0.37-0.6,0.63-1.12,0.75-1.58
				c0.23-0.83-0.03-1.72-0.8-2.67c-0.54-0.66-1.2-1.29-2.07-1.92l-2.9-2.21c-2.27-1.72-3.61-2.72-4.07-3.01
				c-0.95-0.57-1.69-0.95-2.29-1.03c-0.6-0.11-1.18,0-1.72,0.29c-0.49,0.29-1.06,0.8-1.69,1.58
				C330.15,297.53,329.46,298.39,328.63,299.51z"/>
			<path class="st3" d="M348.96,259.01l21.28,10.01l-2.01,4.27l-24.09,2.95l18.61,8.75l-1.35,2.9l-21.28-10.01l2.01-4.24l24.12-2.95
				l-18.61-8.75L348.96,259.01z"/>
		</g>
		<g>
			<path d="M78.87,228.58c-0.34,0.09-0.63,0.57-0.83,1.46c-0.2,0.77-0.57,1.26-1.18,1.43c-0.32,0.09-1.18,0.23-2.52,0.43
				c-1.15,0.11-2.01,0.2-2.58,0.2c0.57,1,1.29,2.24,2.21,3.64c1.2,1.84,2.29,3.7,3.27,5.59c0.4,0.75,0.75,1.55,1.03,2.35
				c0.83,0.23,1.61,0.4,2.32,0.52c-1,0.29-1.66,0.66-1.98,1.15c-0.26,0.49-0.52,0.75-0.77,0.83c-0.4,0.11-0.69-0.23-0.95-1.03
				c-0.4-1.35-0.75-2.35-1.06-2.98c-0.83-1.63-1.72-3.15-2.67-4.53c-1.49-2.21-2.44-3.64-2.9-4.3c-0.66-0.46-1-0.8-1.09-1.12
				c-0.11-0.37-0.03-0.72,0.23-1.06c0.37-0.46,0.72-0.75,1.06-0.86c0.34-0.09,0.98-0.17,1.92-0.26c1.35-0.11,2.41-0.29,3.15-0.52
				c0.34-0.09,0.77-0.4,1.32-0.92c0.46-0.46,0.92-0.75,1.43-0.92c0.54-0.14,0.95-0.14,1.26,0.03c0.4,0.23,0.66,0.49,0.77,0.77
				l-0.17,0.23C79.55,228.55,79.12,228.52,78.87,228.58z M84.8,247.19c-0.34,0.57-0.69,0.89-0.98,0.98
				c-1.03,0.29-2.67,0.57-4.93,0.8c-1.52,0.17-2.78,0.06-3.79-0.34c-0.69-0.29-1.09-0.57-1.18-0.86c-0.03-0.14,0.17-0.4,0.69-0.75
				c0.32-0.72,0.66-1.41,1.09-2.01c0.26,0.89,0.54,1.55,0.86,2.04c2.29-0.14,4.7-0.57,7.17-1.29c0.69-1.06,1.12-1.61,1.26-1.66
				c0.2-0.06,0.32,0.03,0.4,0.26c0.06,0.26,0.09,0.69,0,1.32C85.35,246.1,85.15,246.62,84.8,247.19z M89.48,236.41
				c-0.34,0.09-0.98,0.23-1.92,0.34c-3.47,0.92-5.74,1.55-6.8,1.86c-1.09,0.32-2.12,0.46-3.1,0.37c-1.09-0.09-1.72-0.34-1.84-0.8
				c-0.06-0.26,0.11-0.54,0.57-0.86c0.75-0.57,1.29-1.12,1.58-1.63c0.06,0.43,0.14,0.92,0.32,1.43c1.43-0.17,2.81-0.49,4.16-0.86
				c1.38-0.4,3.53-1.15,6.45-2.27c0.37-1,0.8-1.66,1.23-1.98c0.46,0.09,0.75,0.37,0.89,0.83c0.11,0.34,0,0.95-0.34,1.81
				C90.25,235.75,89.85,236.32,89.48,236.41z"/>
			<path d="M92.2,253.28c-0.43,1.32-0.8,2.12-1.18,2.38c-2.87,2.09-4.73,3.53-5.59,4.33c-1.46,1.35-2.27,2.09-2.44,2.18
				c-0.46,0.26-0.77,0.23-0.95-0.09s-0.06-0.8,0.32-1.49c0.69-0.92,2.47-2.41,5.25-4.42c0.98-0.69,1.72-1.35,2.27-1.92
				c0.95-1.09,1.61-1.75,2.04-2.01c0.43-0.23,0.69-0.29,0.77-0.2l0.03,0.26C92.52,252.59,92.35,252.93,92.2,253.28z M102.61,270.77
				c-0.17,0.09-0.54,0.17-1.18,0.26c-2.87,0.98-5.08,1.72-6.65,2.15c-2.21,0.63-4.04,0.86-5.54,0.77c-0.77-0.09-1.35-0.46-1.72-1.12
				c-0.17-0.29-0.11-0.52,0.17-0.66c0.17-0.11,0.43-0.14,0.77-0.11c0.34-0.2,0.6-0.43,0.83-0.72c-0.4-0.17-0.66-0.34-0.77-0.57
				c-0.52-0.92-1.29-2.15-2.29-3.7c-1.49-2.12-2.24-3.21-2.32-3.33c-0.26-0.46-0.34-1.03-0.23-1.75c0.11-0.17,0.26-0.34,0.49-0.49
				c0.17-0.03,0.34,0.06,0.46,0.17c0.09,0.4,0.14,0.77,0.2,1.12c0.6,0.83,1.32,1.78,2.15,2.81l2.27-1.29
				c-0.98-0.75-1.95-1.55-2.93-2.41c1.38,0.89,2.52,1.58,3.5,2.09l1.46-0.83c-1.32-1.72-2.04-2.7-2.18-2.9
				c-0.32-0.54-0.43-1.12-0.37-1.69l0.37-0.14c0.49,0.49,1.61,1.84,3.38,4.04l3.07-1.75c0-0.49,0.09-0.83,0.32-0.95h0.26
				c0.29,0,0.54,0.14,0.69,0.43c0.14,0.26,0.23,0.72,0.26,1.32c0.03,0.66-0.14,1.09-0.46,1.29c-0.17,0.09-0.57,0.23-1.2,0.4
				c-0.6,0.29-1.15,0.54-1.66,0.83c0.98,1.18,1.58,1.89,1.78,2.21c0.43,0.95,0.46,1.61,0.03,1.95c-0.32,0.14-0.75-0.06-1.26-0.66
				c-1.55-0.86-2.72-1.55-3.56-2.09l-2.9,1.43c0.26,0.43,0.6,0.92,0.95,1.41c0.57,0.34,0.92,0.63,1.03,0.86
				c0.14,0.26,0.11,0.86-0.06,1.81c-0.26,0.49-0.34,0.89-0.26,1.18c0.43,0.23,1.98-0.06,4.62-0.77c3.41-0.95,5.85-1.86,7.37-2.72
				c0.26-0.14,0.32-0.49,0.17-1.06c-0.14-0.4-0.52-1.12-1.12-2.21c-1.06-1.86-2.64-4.1-4.76-6.65c-1.29-1.41-2.04-2.29-2.24-2.61
				c-0.26-0.46-0.66-1.03-1.23-1.78l0.11-0.26c0.34-0.11,1.12,0.32,2.32,1.35c0.72,0.57,2.12,2.29,4.19,5.19
				c1.49,2.01,2.75,3.93,3.79,5.74c0.6,1.03,0.8,2.04,0.6,2.95C103.19,270.05,102.93,270.57,102.61,270.77z M92.92,265.32
				l-0.57-0.77c-0.17,0.09-0.4,0.2-0.66,0.34C92.09,265.06,92.49,265.21,92.92,265.32z"/>
			<path d="M106.43,278.95c0.23,0.69,0.17,1.2-0.23,1.58c-0.29,0.29-1.2,0.72-2.72,1.35c-2.09,1.06-3.81,2.21-5.16,3.47
				c-0.34,0.32-0.63,0.63-0.86,0.89c2.07-0.2,4.36-0.72,6.91-1.61c-1.55,1.26-3.9,2.44-7.06,3.56c-0.46,0.14-0.86,0.34-1.2,0.63
				c-0.32,0.23-0.57,0.23-0.75,0.06c-0.26-0.26-0.17-0.92,0.26-1.98c0.29-0.69,0.86-1.43,1.72-2.24c1-0.92,2.44-2.01,4.3-3.24
				c1.61-1,2.55-1.61,2.81-1.86c0.09-0.09,0.14-0.46,0.11-1.09c0-0.75,0.14-1.26,0.46-1.58c0.69-0.63,1.15-0.77,1.46-0.49
				c0.11,0.11,0,0.46-0.34,0.98C106.26,278.14,106.37,278.66,106.43,278.95z M121.11,285.71c-0.26,0.23-0.77,0.26-1.58,0.03
				c-3.64-0.77-6.28-1.78-7.97-2.98c0.11,0.52,0.17,1.03,0.17,1.55c-0.03,0.72-0.17,1.2-0.43,1.46c-0.23,0.2-0.8,0.66-1.72,1.32
				c-3.67,2.67-6.63,4.1-8.92,4.27c-1.06,0.06-1.72-0.03-1.95-0.26c-0.23-0.26-0.23-0.49,0-0.72c0.14-0.14,0.43-0.29,0.8-0.49
				c0.26-0.26,0.6-0.57,1-0.98c0,0.34,0.03,0.72,0.06,1.09c2.81-0.49,6.02-2.41,9.67-5.79c0.09-1,0.32-1.69,0.66-2.01
				c0.26-0.23,0.52-0.26,0.75-0.06c0.17,0.11,0.34,0.26,0.54,0.37c2.67,0.77,5.33,1.18,7.97,1.2c0.06-0.29,0.11-0.63,0.23-1.03
				c0.32-0.17,0.57-0.14,0.8,0.09c0.32,0.34,0.49,0.69,0.52,1C121.66,284.71,121.49,285.37,121.11,285.71z M117.59,289.36
				c-1.86-0.46-3.53-1.12-4.99-1.89c0.06,0.23,0.11,0.63,0.09,1.15c0,0.49-0.26,0.95-0.75,1.43c-0.32,0.29-0.72,0.66-1.23,1.12
				c2.18,0.77,4.42,1.26,6.8,1.41c0.2-0.34,0.4-0.72,0.57-1.09l0.23,0.09c0.4,0.43,0.57,0.98,0.54,1.58
				c-0.06,0.66-0.23,1.12-0.54,1.43c-0.32,0.29-1,0.23-2.04-0.14c-2.47-0.98-4.39-1.95-5.76-2.93c0.34,0.89,0.54,1.43,0.63,1.69
				c0.6,1.81,0.92,3.64,0.98,5.51c0.06,1.61-0.32,2.78-1.15,3.56c-0.4,0.37-0.75,0.43-1,0.14c-0.29-0.32-0.32-1.09-0.09-2.38
				c0.11-0.63,0.2-2.35,0.29-5.13c0.03-1.32-0.03-2.35-0.17-3.13c-1.72,1.46-3.7,3.21-5.94,5.28c-0.57,0.54-1,0.66-1.32,0.34
				c-0.23-0.26-0.23-0.69,0-1.26c0.23-0.54,0.49-0.95,0.72-1.18c0.14-0.14,0.4-0.29,0.8-0.4c2.78-2.24,4.93-4.02,6.42-5.42
				c0.54-0.52,0.86-0.89,0.92-1.15c0.11-0.69,0.23-1.15,0.43-1.29c0.11-0.11,0.37-0.09,0.77,0.06c1.58,0.52,3.41,0.77,5.56,0.72
				c0.17-0.26,0.32-0.49,0.46-0.72c0.14-0.11,0.29-0.11,0.4,0.03c0.34,0.37,0.52,0.66,0.54,0.86c0.06,0.8-0.11,1.41-0.49,1.75
				C118.99,289.64,118.45,289.64,117.59,289.36z M111.36,278.69c-0.14-0.17-0.32-0.34-0.46-0.54c-0.37-0.37-0.89-0.83-1.58-1.41
				c0.77,0.37,1.43,0.49,1.98,0.32c0.14-0.89,0.11-1.63-0.09-2.24c-0.06-0.17-0.14-0.34-0.32-0.57l0.11-0.26
				c0.46-0.17,0.86-0.06,1.2,0.32c0.52,0.54,0.8,1.15,0.89,1.78c0.17,1.18-0.06,2.07-0.66,2.61
				C112.05,279.06,111.68,279.06,111.36,278.69z"/>
			<path d="M120.17,310.95c-0.43,0.29-0.77,0.34-1.03,0.17c-0.34-0.23-0.52-0.6-0.49-1.09c0.06-0.6,0.2-1.09,0.43-1.43
				c0.23-0.34,0.57-0.69,1-0.98c0.75-0.49,1.23-0.69,1.43-0.54c0.11,0.09,0.09,0.29-0.11,0.57c-0.4,0.6-0.57,1.15-0.54,1.61
				c1.32,0.37,2.78,0.4,4.39,0.14c-1.75,0.89-3.07,1.32-3.96,1.29C120.8,310.7,120.43,310.75,120.17,310.95z M139.47,298.36
				c-0.17,0.26-0.77,0.52-1.86,0.8c-2.98,0.63-5.71,1.26-8.23,1.81c1.43,0.6,3.36,1.26,5.71,2.01l1.86-0.23
				c0.11-0.14,0.2-0.32,0.34-0.52c0.14-0.23,0.34-0.26,0.57-0.11c0.17,0.11,0.37,0.57,0.57,1.35c0.09,0.37,0.06,0.69-0.14,0.95
				c-0.11,0.17-0.54,0.26-1.29,0.32c-3.18,0.11-6.31,0.4-9.35,0.86c4.04,1.46,6.28,2.21,6.71,2.21c0.34-0.03,0.72-0.14,1.15-0.4
				c-0.09-0.32-0.17-0.6-0.29-0.86c-0.09-0.23-0.11-0.37-0.03-0.49c0.11-0.17,0.32-0.17,0.57,0.03c0.32,0.2,0.75,0.69,1.29,1.46
				c0.54,0.77,0.86,1.55,0.95,2.38c0.09,0.77-0.14,1.55-0.66,2.32c-0.26,0.4-0.52,0.52-0.77,0.34c-0.17-0.11-0.32-0.29-0.4-0.49
				c-0.09-0.11-0.34-0.32-0.72-0.57c-0.54-0.34-1.03-0.77-1.46-1.29c0.75,0.26,1.41,0.43,1.92,0.52c0-1.12-0.11-2.18-0.4-3.21
				c-0.37,0.26-0.69,0.6-0.95,1c-0.34,0.52-0.98,0.69-1.86,0.46c-1-0.29-1.98-0.57-2.87-0.89c0.2,0.86,0.32,1.52,0.34,2.04
				c0,0.6-0.2,1.2-0.63,1.84c-1,1.49-1.75,2.64-2.29,3.47c-0.46,0.69-0.95,1.15-1.52,1.38c-0.63,0.26-1.15,0.26-1.61-0.03
				c-0.23-0.14-0.2-0.46,0.06-0.89c0.17-0.32,0.23-0.57,0.11-0.83c-0.37-0.83-0.66-2.01-0.89-3.59c0.63,1.15,1.38,2.07,2.27,2.72
				c1.38-2.01,2.27-3.33,2.7-3.93c0.49-0.75,0.57-1.63,0.2-2.67c-0.83-0.29-1.78-0.63-2.84-0.98c-0.77,0-1.32-0.11-1.63-0.32
				c-0.26-0.17-0.37-0.43-0.34-0.72c0.03-0.4,0.14-0.72,0.32-0.98c0.26-0.37,0.63-0.49,1.09-0.29c0.29,0.11,0.54,0.17,0.75,0.2
				c1.84-0.37,3.73-0.72,5.68-1c-1.23-0.37-2.21-0.66-3.01-0.83c-0.72-0.2-1.2-0.4-1.46-0.57c-0.26-0.17-0.37-0.49-0.37-0.95
				s0.09-0.77,0.2-0.98c0.17-0.26,0.54-0.43,1.15-0.57c3.3-0.75,6.48-1.69,9.64-2.84c-0.03-0.52,0-0.83,0.06-0.95
				c0.09-0.11,0.26-0.14,0.54-0.06c0.29,0.06,0.52,0.14,0.72,0.29c0.32,0.2,0.49,0.6,0.52,1.2
				C139.67,297.79,139.61,298.16,139.47,298.36z M135.31,317.92c-0.09,0.8-0.29,1.43-0.6,1.92c-0.32,0.49-0.69,0.6-1.06,0.34
				c-0.29-0.2-0.46-0.54-0.46-1.03c-0.03-0.54,0-1.2,0.09-2.01c0.09-0.89,0-1.81-0.26-2.7c-0.23-0.83-0.29-1.32-0.17-1.49
				c0.11-0.17,0.23-0.2,0.37-0.11c0.17,0.11,0.54,0.63,1.09,1.52C135.05,315.69,135.4,316.86,135.31,317.92z"/>
			<path d="M163.16,308.83c-0.06,0.17-0.23,0.49-0.52,0.89c-0.23,0.49-0.46,0.95-0.69,1.41c1.03,0.23,1.69,0.34,1.98,0.4
				c0.37,0.03,0.72,0.03,1.03-0.03c0.34,0.11,0.66,0.32,0.92,0.6c0.4,0.4,0.57,0.72,0.49,0.92c-0.11,0.32-0.4,0.43-0.83,0.34
				c-1.66-0.32-3.1-0.6-4.3-0.86l-0.69,1.52c1.23,0.29,2.61,0.66,4.13,1.15c0.54,0.09,0.98,0.2,1.29,0.32
				c0.29,0.11,0.57,0.46,0.83,1.09c0.23,0.52,0.32,0.89,0.23,1.15c-0.11,0.34-0.4,0.69-0.86,1.03c-1.49,1.66-2.47,2.67-2.87,3.01
				c-1,0.75-1.89,0.98-2.67,0.69c-0.14-0.06-0.11-0.32,0.06-0.77c-1.18-0.26-2.15-0.46-2.98-0.63c-0.4,1.23-0.77,2.38-1.18,3.47
				c2.44,1.23,4.3,2.5,5.59,3.76c1.84,1.78,2.55,3.21,2.15,4.3c-0.17,0.49-0.46,0.66-0.83,0.52c-0.34-0.11-1.2-1.12-2.55-3.01
				c-1.06-1.46-2.61-2.95-4.68-4.53c-0.75,2.18-1.18,3.44-1.32,3.84c-0.17,0.52-0.54,0.95-1.06,1.35c-0.43,0.34-0.77,0.46-1.03,0.34
				c-0.26-0.09-0.43-0.4-0.54-0.89c-1.43-1.58-2.18-3.18-2.27-4.79c0.89,1.55,1.95,2.61,3.24,3.1l1.52-4.02
				c-0.72-0.49-1.46-0.95-2.21-1.35c-1.58,0.63-3.15,1.29-4.76,1.95c-1.12,0.43-1.86,0.6-2.18,0.46c-0.29-0.11-0.37-0.34-0.26-0.69
				c0.17-0.49,0.66-0.95,1.46-1.35c0.54-0.06,1.03-0.14,1.46-0.26c2.81-0.98,4.79-1.81,5.94-2.44c0.11-0.14,0.23-0.29,0.34-0.46
				c-0.23-0.09-0.43-0.14-0.6-0.23c-0.11-0.03-0.37-0.23-0.77-0.6c-0.14,0.34-0.29,0.49-0.4,0.43c-0.29-0.11-0.49-0.43-0.6-0.92
				c-0.52-2.27-0.32-4.62,0.57-7.06c0.11-0.29,0.29-0.49,0.57-0.6l0.17,0.17c0.03,0.8,0.14,1.46,0.32,1.95
				c0.66-0.46,2.29-0.43,4.99,0.09l0.57-1.55c-1.43-0.34-2.44-0.6-2.98-0.8c-0.54-0.2-0.95-0.8-1.26-1.78l0.17-0.17
				c0.32,0.14,0.63,0.34,0.92,0.54c1.26,0.34,2.5,0.63,3.7,0.83l0.92-2.47c-0.37-0.49-0.54-0.83-0.54-1l0.11-0.32
				c0.46-0.29,0.86-0.37,1.2-0.23c0.32,0.11,0.63,0.37,0.98,0.77C163.1,308.06,163.28,308.49,163.16,308.83z M155.7,321.57
				c-0.09,0.23-0.92,0.66-2.5,1.29c0.66,0.29,1.26,0.54,1.86,0.83l1.09-2.95c-0.09-0.03-0.2-0.03-0.34-0.03
				C155.82,320.99,155.79,321.31,155.7,321.57z M153.44,318.81c1.23,0,2.44-0.14,3.61-0.43l0.2-0.57c-1.55-0.32-2.38-0.49-2.5-0.54
				c-0.26-0.09-0.63-0.32-1.12-0.66C153.52,317.38,153.47,318.1,153.44,318.81z M157.68,316.6l0.63-1.69
				c-1.72-0.4-3.21-0.46-4.47-0.23c-0.06,0.43-0.09,0.89-0.11,1.35C154.38,316.26,155.7,316.43,157.68,316.6z M156.56,319.59
				l0.29-0.77c-0.8,0.03-1.63,0.14-2.55,0.37L156.56,319.59z M160.98,317.21c0.8,0.29,1.12,0.63,0.98,1
				c-0.11,0.29-0.52,0.37-1.26,0.29c-0.66-0.06-1.38,0.03-2.15,0.2l-0.43,1.15c0.98,0.2,1.69,0.23,2.18,0.06
				c0.49,0.23,0.83,0.57,1.06,1c1.23-1.09,2.38-2.47,3.5-4.13c-0.34-0.2-0.83-0.43-1.49-0.66c-0.77-0.29-1.92-0.6-3.38-0.92
				l-0.66,1.63C160.15,316.98,160.69,317.09,160.98,317.21z"/>
			<path d="M177.99,323.2c-0.03,0.32-0.2,0.75-0.49,1.35c-1.23,2.47-2.01,5.13-2.35,7.97c1.23-1.09,2.9-2.87,5.05-5.36
				c-1.29,2.75-2.87,5.39-4.73,7.94c-0.23,0.6-0.43,0.89-0.66,0.86c-0.29-0.03-0.54-0.43-0.77-1.18c-0.2-0.69-0.29-1.38-0.2-2.04
				c0.14-1.2,0.52-2.93,1.15-5.19c0.63-2.29,0.98-3.59,1.09-3.87c-0.34-0.29-0.69-0.69-1.09-1.2c-0.29-0.4-0.4-0.83-0.34-1.23
				c0.06-0.43,0.4-0.86,1.06-1.23l0.23,0.2c-0.06,0.43,0.03,0.75,0.26,0.98C177.44,322,178.08,322.68,177.99,323.2z M181.49,317.32
				c-0.11,0.83-0.4,1.23-0.86,1.18c-0.17-0.03-0.49-0.09-0.86-0.2c-0.52-0.03-1.12,0.03-1.84,0.17c0.75-0.54,1.2-1.06,1.43-1.52
				c-0.46-1.06-1.03-1.86-1.72-2.41v-0.34c0.32-0.2,0.72-0.29,1.23-0.2c0.75,0.09,1.43,0.57,2.09,1.46
				C181.4,316.03,181.58,316.66,181.49,317.32z M184.36,329.2c0.2,0.34,0.26,0.92,0.17,1.69c-0.14,1.12-0.63,2.29-1.52,3.53
				c-0.54,0.77-1.09,1.12-1.61,1.06c-0.37-0.06-0.54-0.2-0.49-0.52c0.03-0.23,0.14-0.54,0.34-1c0.06-0.49,0.11-0.89,0.14-1.26
				c0.09,0.11,0.23,0.29,0.37,0.49c0.8-1.41,1.26-2.47,1.35-3.21c0.06-0.37,0.03-0.66-0.06-0.83c-0.09-0.23-0.11-0.4-0.09-0.57
				c0.03-0.23,0.14-0.32,0.32-0.29C183.7,328.31,184.07,328.62,184.36,329.2z M195.72,319.53c-0.03,0.17-0.69,0.34-1.98,0.52
				c-3.44,1.23-6.31,3.01-8.63,5.33c2.5-0.09,4.82-0.49,6.97-1.29c-0.23-0.43-0.54-0.86-0.95-1.32l0.11-0.26
				c0.29-0.14,0.6-0.17,0.95-0.14c0.26,0.03,0.49,0.14,0.72,0.34c0.92,0.8,1.55,1.61,1.95,2.41c0.23,0.49,0.29,1,0.23,1.55
				s-0.34,0.77-0.86,0.72c-0.29-0.03-0.8-0.77-1.61-2.24c-0.4,0.4-1,0.72-1.78,0.92c-2.15,0.52-4.16,0.92-5.99,1.2
				c-0.8,0.17-1.29,0.26-1.46,0.23c-0.52-0.06-0.77-0.43-0.77-1.09c0.06-0.43,0.14-0.72,0.29-0.92c0.2-0.17,0.52-0.4,1-0.66
				c1.69-1.55,3.67-3.07,5.99-4.56c-0.86,0.11-1.84,0.29-2.93,0.54c-1.2,0.29-2.01,0.43-2.44,0.37c-0.72-0.09-1.38-0.52-1.98-1.29
				c0.06-0.26,0.2-0.4,0.43-0.4c0.23,0.03,0.6,0.11,1.15,0.29c2.87-0.46,5.85-0.89,8.95-1.26c0.49-0.29,0.89-0.43,1.15-0.4
				c0.29,0.03,0.63,0.17,1.03,0.4C195.57,318.81,195.74,319.13,195.72,319.53z M187.2,335.3c-0.29-0.03-0.49-0.32-0.63-0.89
				c-0.11-0.37-0.14-0.69-0.11-0.95c0.03-0.23,0.17-0.63,0.43-1.2c0.2-0.98,0.37-1.86,0.46-2.67c-0.34-0.6-0.52-1-0.49-1.18
				c0.03-0.26,0.17-0.37,0.4-0.34c0.37,0.06,0.83,0.43,1.35,1.12c0.26,0.34,0.34,0.8,0.29,1.35c-0.09,0.83-0.37,2.07-0.77,3.7
				C187.91,335.02,187.6,335.36,187.2,335.3z M192.93,317.12c-0.09,0.6-0.43,0.86-1.03,0.8c-0.23-0.03-0.57-0.14-1.09-0.32
				c-0.37-0.06-0.86-0.17-1.46-0.32c0.52-0.17,0.92-0.32,1.23-0.43c-0.54-0.63-1.2-1.23-1.95-1.78l0.06-0.32
				c0.34-0.34,0.72-0.46,1.18-0.43c0.63,0.09,1.26,0.32,1.86,0.75C192.59,315.74,193.02,316.43,192.93,317.12z M193.05,329.6
				c-0.03,0.2-0.11,0.49-0.23,0.83c-0.43,1.15-0.75,2.38-0.89,3.73c-0.06,0.52,0,0.86,0.2,1.06c0.46,0.4,1.09,0.63,1.89,0.72
				c1.06,0.11,1.78,0.14,2.15,0.06c0.11-0.34,0.23-0.77,0.32-1.26c0.11,0.63,0.29,1.09,0.52,1.35c0.63,0.49,0.92,0.89,0.89,1.23
				c-0.03,0.29-0.46,0.49-1.26,0.63c-0.46,0.03-1.15,0-2.07-0.11c-1.81-0.23-2.98-0.66-3.47-1.35c-0.54-0.75-0.75-1.63-0.63-2.7
				c0.17-1.38,0.49-2.95,0.95-4.7c-0.34-0.72-0.49-1.18-0.49-1.38c0.03-0.29,0.32-0.37,0.89-0.32c0.23,0.03,0.52,0.29,0.83,0.8
				C192.93,328.76,193.08,329.22,193.05,329.6z"/>
			<path d="M208.48,317.49c0.03,0.29-0.2,0.98-0.72,2.09c-0.66,1.46-1.66,3.53-3.01,6.17c0.17,0.17,0.46,0.4,0.77,0.66
				c0.63,0.72,1,1.49,1.09,2.32c0.09,0.72,0.26,2.35,0.52,4.88c0.11,1.78,0.17,2.78,0.2,2.98c0.09,0.75-0.06,1.15-0.46,1.2
				c-0.37,0.03-0.72-0.14-1-0.57c-0.43-0.63-0.69-1.23-0.75-1.78c-0.03-0.32,0.03-0.72,0.17-1.15c0.03-2.27-0.03-4.24-0.23-5.88
				c-0.06-0.63-0.2-1.18-0.4-1.61c-0.09-0.2-0.2-0.32-0.37-0.32c-0.75,1.29-1.23,2.12-1.49,2.47c-0.32,0.43-0.54,0.66-0.77,0.66
				c-0.34,0.03-0.52-0.06-0.54-0.29c-0.03-0.14,0.06-0.43,0.26-0.86c1.86-4.19,3.3-7.92,4.3-11.16c-0.6-0.52-0.92-0.89-0.92-1.09
				l0.03-0.14c0.23-0.14,0.57-0.26,1.03-0.32c0.17-0.03,0.57,0.17,1.18,0.63C208.11,316.86,208.45,317.23,208.48,317.49z
				 M209.8,323.54c0.09,0.75,0.17,2.5,0.29,5.25c0.17-0.23,0.32-0.57,0.46-1.09c-0.23,1.2-0.26,2.64-0.06,4.27
				c0.11,0.92,0.03,1.38-0.23,1.41c-0.23,0.03-0.49-0.09-0.75-0.32c-0.43-0.34-0.66-0.77-0.75-1.32c-0.09-0.75-0.14-1.52-0.17-2.29
				c-0.09-2.15-0.26-4.47-0.52-6.94c-0.4-0.46-0.63-0.8-0.63-0.95c-0.03-0.17,0.06-0.29,0.26-0.32c0.26-0.03,0.57,0.09,0.95,0.34
				C209.34,322.08,209.71,322.71,209.8,323.54z M216.34,314.97c0.03,0.32-0.37,1.26-1.23,2.81c1.18-0.66,2.38-1.32,3.64-1.92
				c0.69-0.66,1.15-1.03,1.41-1.06c0.26-0.03,0.66,0.06,1.18,0.26c0.52,0.17,0.8,0.37,0.8,0.57c0.03,0.23-0.43,0.66-1.41,1.2
				c-0.66,0.37-1.61,1.89-2.84,4.56c1.46,0.03,3.13,0.26,5.02,0.69c1.43,0.32,2.55,0.75,3.33,1.32c0.66,0.46,1,0.89,1.03,1.29
				c0.03,0.37-0.09,0.6-0.4,0.63c-0.43,0.06-1.98-0.43-4.65-1.43c-1.55-0.57-3.21-0.98-4.99-1.18c-0.49,0.8-1.09,1.75-1.84,2.81
				c-0.83,1.15-1.63,2.04-2.41,2.61c-0.54,0.37-1.15,0.6-1.84,0.69c-0.23,0.03-0.37-0.06-0.4-0.23c-0.03-0.23,0.17-0.52,0.63-0.83
				c1.55-1.15,2.98-2.9,4.3-5.25c-0.34-0.03-0.89-0.03-1.58,0c-0.34,0-0.54-0.17-0.57-0.49c-0.03-0.23,0.09-0.37,0.37-0.4
				c0.43-0.06,1.23-0.11,2.41-0.23c0.6-1.18,1.18-2.32,1.72-3.47c-1.03,0.46-2.07,1.06-3.13,1.78c-0.98,1-1.55,1.52-1.72,1.52
				c-0.29,0.03-0.52-0.11-0.63-0.43c-0.17-0.4-0.29-0.75-0.32-1.06c-0.03-0.23,0.2-0.63,0.72-1.2c0.49-0.72,0.98-1.92,1.52-3.61
				c-0.37-0.46-0.57-0.83-0.6-1.09l0.06-0.14c0.63-0.06,1.12-0.06,1.49,0.03C215.99,314.11,216.28,314.51,216.34,314.97z
				 M220.18,324.75c0.03,0.29-0.17,0.6-0.63,0.98c-0.66,0.52-1.18,0.95-1.52,1.29c0.8-0.17,1.52-0.43,2.18-0.77
				c0.14-0.03,0.32,0.09,0.52,0.34c0.14,0.17,0.23,0.4,0.26,0.66c0.03,0.17-0.14,0.43-0.52,0.69c-0.49,0.54-0.95,1.18-1.43,1.84
				c1.55-0.66,2.47-1,2.72-1.03c0.29-0.03,0.69,0.23,1.2,0.75c0.4,0.37,0.63,0.69,0.66,0.95c0.03,0.17-0.11,0.49-0.4,0.95
				c-1.78,2.72-3.01,4.36-3.64,4.99c-1.52,1.26-3.3,2.01-5.31,2.24l-0.11-0.23c-0.03-0.17,0.2-0.34,0.66-0.52
				c1.84-0.8,3.47-2.27,4.93-4.39c0.95-1.41,1.49-2.52,1.58-3.33c-1.84,0.63-3.01,1.18-3.56,1.63c-0.72,0.6-1.26,0.92-1.58,0.95
				c-0.29,0.03-0.46-0.09-0.49-0.4c-0.09-0.75,0.03-1.29,0.37-1.61c0.49-0.14,0.83-0.32,1.06-0.54c0.26-0.32,0.89-1.12,1.86-2.44
				c-0.66,0.09-1.2,0.29-1.63,0.54c-0.72,0.43-1.15,0.63-1.26,0.66c-0.57,0.06-0.89-0.17-0.95-0.72c-0.09-0.66,0.09-1,0.49-1.06
				c0.4-0.06,0.75-0.2,1.03-0.46c0.69-0.63,1.38-1.35,2.07-2.15c-0.17-0.11-0.26-0.32-0.29-0.52c-0.03-0.29,0.11-0.43,0.43-0.46
				c0.29-0.03,0.54,0.06,0.77,0.26C219.95,324.03,220.12,324.35,220.18,324.75z"/>
			<path d="M246.22,309.72c0.09,0.23-0.14,0.52-0.66,0.89c-1.12,0.77-2.09,1.52-2.87,2.18c-0.92,0.72-2.52,3.64-4.85,8.78
				c-0.92,2.27-1.55,3.47-1.92,3.61c-0.32,0.11-0.52,0.03-0.63-0.26c-0.09-0.23-0.11-0.72-0.11-1.49c-0.06-0.83,0.09-1.38,0.34-1.63
				c0.17-0.14,0.43-0.46,0.83-0.92c1-2.07,2.12-4.16,3.38-6.22c-1.09,0.75-2.41,1.69-3.9,2.87c-0.49,0.37-0.86,0.6-1.15,0.72
				c-0.43,0.14-1.06,0.11-1.95-0.09c-0.6-0.14-0.95-0.32-1-0.52c-0.11-0.34,0.09-0.66,0.57-0.95l0.14,0.06
				c0.09,0.23,0.32,0.29,0.72,0.2c1.23-0.57,4.36-2.7,9.38-6.34c0.49-0.72,0.95-1.15,1.35-1.29c0.52-0.2,0.98-0.23,1.32-0.14
				C245.79,309.23,246.11,309.43,246.22,309.72z M240.54,309.38c0.2,0.57,0.11,0.95-0.32,1.09c-0.17,0.06-0.69,0.23-1.55,0.46
				c-0.6,0.23-1.15,0.49-1.63,0.83c0.66-0.57,1.03-1.2,1.18-1.81c-1.15-0.26-1.92-0.43-2.27-0.49c-0.46-0.06-0.77-0.23-0.98-0.49
				l0.03-0.26c1.41-0.49,2.27-0.77,2.55-0.8c0.63-0.11,1.26,0.03,1.86,0.43C240.11,308.83,240.46,309.15,240.54,309.38z
				 M247.6,315.03c0.43,0.23,0.72,0.49,0.83,0.8c0.14,0.37,0.03,0.63-0.34,0.77c-0.34,0.11-0.98,0.06-1.89-0.17
				c-0.63-0.17-1.2-0.2-1.72-0.11c-0.4,0.43-0.52,0.83-0.4,1.2c0.11,0.29,0.32,0.52,0.66,0.66c0.43,0.14,0.69,0.37,0.8,0.69
				c0.09,0.23,0.09,0.49,0.06,0.8c-0.11,0.72-0.32,1.78-0.57,3.18c4.16,1.38,6.37,2.09,6.63,2.12c0.83,0.11,1.61,0.09,2.29-0.06
				c1.18-0.26,2.07-0.34,2.7-0.23c0.75,0.11,1.2,0.34,1.35,0.69c0.14,0.32-0.32,0.66-1.32,1.03c-1.78,0.66-3.15,1.09-4.1,1.29
				c-0.37-0.06-0.95-0.29-1.69-0.66c-3.93-2.01-5.99-2.95-6.17-2.9c-1.03,3.59-2.07,5.88-3.13,6.88c-1.06,0.98-2.07,1.63-3.04,1.98
				c-0.69,0.26-1.18,0.43-1.41,0.52l-0.2-0.2c1.75-1.06,3.04-2.35,3.87-3.81c0.98-1.78,1.72-3.76,2.24-5.99
				c-1.43-0.43-2.7-0.72-3.79-0.86c-0.63-0.09-0.98-0.23-1.03-0.4c-0.03-0.06-0.03-0.2,0-0.4c0.03-0.26,0.11-0.43,0.23-0.46
				c0.14-0.06,0.32-0.03,0.49,0.06c0.34,0.17,0.57,0.26,0.69,0.29c1,0.03,2.27,0.23,3.73,0.63c0.17-0.6,0.32-1.63,0.43-3.1
				c-0.34-0.46-0.57-0.83-0.69-1.15c-0.14-0.4-0.03-0.98,0.32-1.72c-0.57,0.03-1.06,0.11-1.43,0.26c-0.32,0.11-0.52,0.11-0.57-0.06
				c-0.06-0.14,0.03-0.34,0.29-0.54c0.43-0.4,0.95-0.72,1.52-0.95c1.2-0.43,2.12-0.63,2.75-0.54
				C246.54,314.62,247.11,314.8,247.6,315.03z"/>
			<path d="M262.72,296.27c0.11,0.17,0.17,0.49,0.14,0.98c-0.03,0.49-0.09,1-0.14,1.55c0.37-0.11,1.09-0.14,2.12-0.06
				c4.62,0.34,7.29,0.52,8.06,0.52c0.66,0,1.78-0.26,3.38-0.72c0.69-0.2,1.46-0.17,2.27,0.11c0.43,0.14,0.69,0.32,0.83,0.49
				c0.14,0.23-0.09,0.54-0.66,0.95c-1.09,0.72-2.35,1.29-3.81,1.66c-0.75,0.2-2.12-0.03-4.16-0.69c-1.38-0.46-3.7-0.89-6.94-1.29
				c-0.34-0.03-0.69,0-1.06,0.09c-0.11,6.11-0.52,10.27-1.18,12.42c-0.54,1.75-1.23,2.87-2.04,3.41c-0.26,0.17-0.54,0.32-0.8,0.4
				l-0.17-0.14c0.66-1.15,1.12-2.47,1.38-3.96c0.66-3.76,1-8.52,1.03-14.31c-0.29,0-0.57-0.03-0.86-0.03l-0.17-0.2
				c0.2-0.8,0.43-1.32,0.69-1.49c0.2-0.14,0.6-0.17,1.15-0.09C262.26,295.92,262.57,296.07,262.72,296.27z M268.85,302.32
				c0.14,0.2,0.09,0.43-0.11,0.69c-1.89,2.12-2.95,3.27-3.21,3.47c-0.37,0.23-0.92,0.4-1.66,0.46c-0.54,0.06-0.89-0.03-1.03-0.26
				c-0.14-0.2-0.11-0.34,0.06-0.46c0.06-0.03,0.43-0.2,1.12-0.46c1.32-1.52,2.15-2.55,2.52-3.07c0.14-0.29,0.29-0.49,0.43-0.6
				c0.14-0.11,0.43-0.14,0.83-0.11C268.37,301.98,268.71,302.09,268.85,302.32z M271.61,305.62c-0.26,0.32-0.6,0.75-1,1.29
				c-0.66,2.52-1.23,5.33-1.69,8.38c1.84-1.84,3.36-3.64,4.59-5.48c-1.38-0.2-2.09-0.34-2.21-0.52c-0.11-0.17-0.06-0.32,0.14-0.46
				c0.43-0.29,0.95-0.43,1.63-0.52c2.75-0.2,4.73,0.63,5.94,2.47c0.14,0.23,0.23,0.52,0.23,0.86c0,0.29-0.09,0.49-0.23,0.57
				c-0.14,0.11-0.37,0.11-0.6,0.09c-0.52,0.03-1.32,0.06-2.47,0.14c0.46-0.4,0.75-0.72,0.8-1c-0.54-0.43-1.18-0.77-1.84-0.98
				c-1.49,2.58-3.21,4.88-5.13,6.91c-0.4,0.66-0.75,1.06-1,1.23c-0.29,0.17-0.72,0.23-1.35,0.17c-0.37-0.03-0.69-0.26-0.98-0.66
				c-0.29-0.43-0.2-0.8,0.23-1.09c0.32-0.2,0.57-0.54,0.72-1.03c0.43-1.43,0.86-3.7,1.23-6.83c-1.72,2.04-2.72,3.15-3.04,3.36
				c-0.34,0.23-0.83,0.34-1.43,0.32c-0.46,0-0.77-0.11-0.92-0.32c-0.11-0.14-0.06-0.29,0.11-0.4c0.14-0.11,0.46-0.2,0.89-0.29
				c1.89-2.18,3.41-4.04,4.62-5.59c0.09-0.63,0.26-1.03,0.57-1.23c0.17-0.11,0.49-0.2,0.92-0.26c0.69-0.06,1.12,0.03,1.26,0.23
				C271.81,305.19,271.78,305.42,271.61,305.62z"/>
			<path d="M280.5,289.53c0.49,0.46,1,1.46,1.55,3.01c0.26,0.75,0.32,1.2,0.14,1.38c-0.2,0.23-0.52,0.2-0.95,0
				c-0.37-0.2-0.66-0.37-0.89-0.6c-0.26-0.23-0.6-1.2-1.06-2.87c-0.17-0.54-0.43-1.03-0.8-1.43c-0.2-0.2-0.32-0.37-0.37-0.54
				l0.23-0.09C279.35,288.73,280.07,289.13,280.5,289.53z M284.23,280.03c0.54,0.52,0.66,0.98,0.29,1.35
				c-0.26,0.29-0.66,0.37-1.18,0.32c-0.29,0.29-0.66,0.63-1.06,1.09c0.11-0.54,0.2-1.03,0.26-1.43c-0.72,0.03-1.32,0.11-1.78,0.23
				c-0.63,0.17-1.09,0.2-1.35,0.09l-0.06-0.2c0.29-0.49,0.54-0.86,0.83-1.18c0.57-0.6,1.41-0.92,2.47-0.92
				C283.25,279.38,283.77,279.58,284.23,280.03z M292.11,274.87c0.83-0.03,1.43,0.14,1.84,0.52c0.29,0.29,0.17,0.75-0.4,1.38
				c-0.34,1.41-0.83,2.47-1.52,3.18c-0.29,0.29-0.66,0.57-1.12,0.83c0.63-1.75,0.77-3.1,0.4-4.07c-0.75,0.37-1.35,0.83-1.84,1.35
				c-2.72,2.87-4.7,5.62-5.99,8.2c-0.32,0.63-0.66,1.15-1.03,1.55c-1.06,1.15-1.66,1.66-1.81,1.55c-0.09-0.09-0.06-0.32,0.09-0.66
				c0.26-0.66,0.57-1.41,1-2.18c1.52-2.95,3.96-6.25,7.31-9.95c0.2-0.29,0.43-0.57,0.69-0.83
				C290.22,275.16,291.02,274.9,292.11,274.87z M286.23,286.89c0.4,0.37,0.75,1.35,1.06,2.87c0.4,2.09,0.49,3.67,0.29,4.76
				c-0.11,0.49-0.32,0.86-0.6,1.15c-0.23,0.26-0.49,0.26-0.72,0.03c-0.14-0.11-0.26-0.46-0.4-1.03c-0.11-0.34-0.29-0.66-0.49-0.95
				c0.34,0.23,0.63,0.23,0.89,0c-0.03-2.12-0.57-4.16-1.58-6.14c-0.26,0.11-0.46,0.2-0.63,0.2c-0.34,0.03-0.57,0-0.69-0.11
				c-0.09-0.09,0.06-0.32,0.4-0.72c0.14-0.14,0.43-0.29,0.86-0.4C285.32,286.43,285.86,286.55,286.23,286.89z M288.56,282.19
				c0.11,0.11,0.32,0.34,0.63,0.75c0.23,0.34,0.69,0.83,1.35,1.46c0.26,0.26,0.49,0.34,0.63,0.26c0.54-0.43,0.92-0.75,1.12-0.98
				c0.06-0.46,0.2-0.8,0.43-1.03c0.11-0.14,0.46-0.29,0.98-0.43c0.63-0.17,1.06-0.14,1.26,0.06c0.37,0.34,0.34,0.72-0.06,1.15
				c-0.29,0.29-0.6,0.72-1,1.23c-0.57,1.18-1.23,2.32-1.98,3.47c0.4-1.03,0.57-1.86,0.54-2.44c-0.77,0.37-1.32,0.6-1.61,0.66
				c-0.43,0.09-0.77,0.03-1-0.17c-0.4-0.37-1.26-1.26-2.61-2.61c-0.63,0.34-1.06,0.4-1.23,0.23c-0.17-0.17-0.17-0.4-0.03-0.75
				c0.06-0.17,0.17-0.34,0.29-0.49c0.11-0.11,0.43-0.26,0.98-0.37C287.93,281.99,288.36,282.01,288.56,282.19z M295.53,288.27
				c0.2,0.2,0.26,0.57,0.14,1.15c0.29,1.46,0.52,2.95,0.69,4.5c1.89-2.01,3.53-3.76,4.93-5.25c0.06-0.26,0.2-0.49,0.43-0.75
				c0.34-0.37,1.09-0.66,2.18-0.86c0.52-0.11,0.92,0,1.23,0.29c0.29,0.29,0.26,0.6-0.09,0.98c-0.29,0.29-1.2,0.86-2.72,1.69
				c-1.72,1.61-3.13,2.95-4.16,4.07c-1.58,1.66-2.81,3.56-3.7,5.68c-0.6,1.2-0.98,1.89-1.15,2.04c-0.37,0.4-1,0.66-1.84,0.75
				c-0.6,0.06-1,0-1.2-0.17c-0.29-0.29-0.34-0.54-0.11-0.77c0.11-0.14,0.52-0.17,1.18-0.11c2.15-3.21,3.33-5.13,3.56-5.74
				c0.2-0.54-0.14-2.09-1.03-4.65c-1.12,1.84-1.86,2.93-2.18,3.3c-0.43,0.46-1.2,0.54-2.32,0.2c-0.17-0.14-0.14-0.34,0.09-0.57
				c0.09-0.09,0.4-0.17,0.95-0.23c0.95-1.43,1.75-3.01,2.38-4.7c0.03-0.43,0.11-0.72,0.26-0.86c0.2-0.2,0.69-0.32,1.55-0.34
				C294.92,287.92,295.27,288.04,295.53,288.27z"/>
			<path d="M299.77,255.74c0.29,0.17,0.37,0.52,0.23,1.09c-0.06,1.32-0.14,2.47-0.26,3.5c0.89-0.52,1.58-0.83,2.07-0.98
				c0.63-0.2,1.12-0.26,1.46-0.17c0.17-0.63,0.26-1.2,0.23-1.63c-0.03-0.26,0-0.46,0.06-0.54c0.11-0.23,0.54-0.46,1.29-0.69
				c0.29-0.09,0.54-0.06,0.77,0.06c0.17,0.09,0.2,0.52,0.09,1.29c-0.2,1.2-0.23,2.07-0.06,2.58c0.92,0.57,1.89,1.15,2.9,1.72
				c0.57-1.35,1.35-2.93,2.32-4.73c-1.03,0.11-2.01,0.37-2.93,0.77c0.92-0.86,1.95-1.52,3.07-2.04c0.49-0.2,1.09-0.57,1.84-1.06
				c0.52-0.32,0.95-0.37,1.32-0.17c0.32,0.17,0.32,0.49,0.06,0.98c-0.17,0.29-0.49,0.72-0.92,1.32c-0.8,1.03-1.58,2.21-2.29,3.47
				c-0.37,0.66-0.72,1.41-1.06,2.24c2.75,1.58,4.85,2.95,6.34,4.13c1.03,0.89,1.63,1.69,1.84,2.41c0.26,0.95,0.32,1.52,0.17,1.75
				c-0.11,0.17-0.32,0.26-0.66,0.26c-1.72,1.55-3.64,2.47-5.74,2.81c1.69-1.06,2.72-1.92,3.13-2.64c0.23-0.4,0.52-0.98,0.89-1.69
				c-1.55-2.01-3.76-3.84-6.63-5.48c-0.98,2.47-1.58,4.88-1.78,7.29c-0.11,1.41-0.26,2.21-0.4,2.47c-0.29,0.49-0.8,1.03-1.55,1.58
				c-0.66,0.52-1.12,0.69-1.32,0.57c-0.34-0.2-0.4-0.46-0.23-0.77c0.06-0.09,0.26-0.17,0.6-0.26c1.12-5.31,2.21-9.21,3.24-11.64
				c-0.75-0.4-1.49-0.77-2.27-1.12c-0.09,1.95-0.29,3.9-0.66,5.88c0.2-2.95,0.09-5.05-0.37-6.31c-0.95,3.21-1.52,4.96-1.69,5.28
				c-0.37,0.66-0.89,1.09-1.49,1.35c-0.57,0.23-1,0.29-1.29,0.11c-0.2-0.11-0.23-0.26-0.11-0.46c0.09-0.11,0.43-0.34,1.09-0.66
				c0.66-2.21,1.23-4.33,1.66-6.34c-0.46-0.11-0.92-0.23-1.41-0.37c-0.37,0.23-0.6,0.37-0.75,0.43c-0.2,0.09-0.52,0.06-0.95-0.06
				c-0.49,2.52-1.03,4.33-1.66,5.39c0.4-2.78,0.32-5.79-0.23-9.06c-0.34,0.11-0.72,0.2-1.18,0.32l-0.11-0.14
				c0.14-0.46,0.37-1,0.72-1.61C298.39,255.57,299.26,255.43,299.77,255.74z"/>
			<path d="M308.4,243.15c0.43-0.23,0.77-0.29,1.06-0.2c0.2,0.06,0.32,0.17,0.4,0.32c0.06,0.14,0.03,0.37-0.06,0.69
				c0.17,0.63,0.26,1.26,0.29,1.89c-0.26-0.46-0.49-0.77-0.72-0.98c-0.69,0.83-1.2,1.29-1.55,1.38c-0.23,0.06-0.54,0.03-0.95-0.09
				c-0.09-0.09-0.11-0.17-0.11-0.32c0.34-0.34,0.63-0.77,0.8-1.23C307.83,243.81,308.12,243.32,308.4,243.15z M309.27,233.48
				c0.49,0.34,1,0.83,1.61,1.49c0.6,0.34,0.86,0.66,0.77,0.98c-0.09,0.34-0.46,0.63-1.06,0.89c-0.75,0.29-1.43,0.34-2.09,0.17
				c-0.4-0.11-0.69-0.34-0.86-0.69c0.09-0.26,0.23-0.37,0.4-0.32c0.37,0.11,0.98-0.06,1.78-0.54
				C309.72,234.89,309.55,234.23,309.27,233.48z M309.49,229.1c0.4-0.14,0.8-0.17,1.15-0.06c0.37,0.11,0.66,0.54,0.86,1.29
				c0.66,1.78,1.12,3.7,1.41,5.76c-0.06-1.46,0.03-3.18,0.23-5.19c-0.11-0.83-0.14-1.41-0.06-1.69c0.11-0.43,0.43-0.86,0.86-1.29
				c0.4-0.37,0.75-0.54,1-0.46c0.29,0.09,0.37,0.4,0.2,0.95c-0.11,0.43-0.29,0.92-0.49,1.46c-0.32,1.55-0.49,3.18-0.54,4.93
				c0.57,0,0.95,0.03,1.15,0.09s0.49,0.4,0.92,1.03c-0.09-1.12-0.06-2.18,0.11-3.21c0.09-0.6,0.14-0.95,0.17-1.06
				c0.09-0.34,0.37-0.6,0.8-0.8c0.63-0.29,1.03-0.37,1.23-0.34c0.17,0.06,0.6,0.17,1.35,0.4c1.61,0.37,3.01,0.75,4.24,1.12
				c1.18,0.34,2.09,0.69,2.78,1.06c0.66,0.34,0.89,0.75,0.77,1.2c-0.11,0.4-0.75,0.52-1.86,0.32c-0.95-0.43-1.95-0.8-3.01-1.12
				c-1.63-0.49-3.33-0.86-5.05-1.09c-0.23,1.03-0.43,2.07-0.66,3.1c-0.2,0.54-0.37,0.8-0.52,0.77c-0.09-0.06-0.2-0.14-0.29-0.2
				c0.29,0.66,0.49,1.26,0.63,1.81c0.43-0.11,0.86-0.17,1.35-0.09c0.29-1.43,0.4-2.55,0.34-3.36c0.29-0.6,0.63-0.86,1.03-0.75
				c0.14,0.06,0.23,0.32,0.23,0.8c-0.03,0.75,0.14,1.78,0.49,3.1c-0.2-0.63-0.43-1.09-0.66-1.32l-0.49,1.92
				c0.43,0.14,0.89,0.29,1.35,0.43c0.32-1.12,0.49-1.92,0.52-2.38c0-0.6,0-1.06,0-1.35c0.26-0.54,0.63-0.8,1.09-0.77
				c0.23,0.09,0.37,0.43,0.4,1c0,0.4,0.32,1.69,0.95,3.9c0.43-1.46,0.63-2.38,0.57-2.75c-0.06-0.37-0.06-0.69,0-0.89
				c0.43-0.57,0.86-0.8,1.26-0.69c0.34,0.11,0.37,0.6,0.11,1.46l-1.03,3.53c0.43,0.37,0.6,0.66,0.57,0.83
				c-0.09,0.29-0.4,0.46-0.95,0.54c-0.32,0.03-0.63,0-0.95-0.09c-0.6-0.17-1.06-0.34-1.38-0.46c-1.95-0.8-3.18-1.29-3.73-1.43
				c-0.34-0.09-0.63-0.09-0.89,0.06c-0.11,0.06-0.29,0.06-0.52,0c-0.2-0.06-0.37-0.26-0.52-0.6c-0.2-0.52-0.72-1.38-1.49-2.55
				c-0.14-0.06-0.32-0.11-0.46-0.17c0.03,1,0.14,2.15,0.32,3.38c0.17,1,0.23,1.63,0.17,1.86c-0.26,0.86-0.77,1.38-1.52,1.58
				c-0.29-0.11-0.46-0.37-0.49-0.77c0.14-0.2,0.32-0.43,0.57-0.72c-0.06-1.95-0.2-3.59-0.4-4.88c-0.86-2.44-1.86-4.24-3.01-5.48
				c-0.37,0.09-0.75,0.14-1.12,0.23l-0.17-0.17c0-0.37,0.03-0.6,0.06-0.72C308.61,229.61,308.95,229.3,309.49,229.1z M314.17,245.42
				c0.14-0.43,0.49-0.8,1.06-1.03c0.49-0.2,0.86-0.26,1.09-0.2c0.26,0.09,0.6,0.29,1.12,0.63c0.72,0.54,1.2,0.83,1.41,0.92
				c0.23,0.06,0.83-0.11,1.84-0.57c0.63-0.29,1.2-0.37,1.66-0.23c0.37,0.11,0.95,0.75,1.72,1.89c0.43-1.23,0.75-2.12,0.92-2.7
				c0.92-2.47,1.86-4.53,2.87-6.22c1.61-2.7,2.47-4.27,2.61-4.7c0.11-0.43,0.26-1.03,0.37-1.84c0.14-0.92,0.26-1.52,0.34-1.84
				c0.11-0.43,0.32-0.8,0.6-1.15c0.23-0.29,0.52-0.4,0.86-0.29c0.32,0.09,0.46,0.63,0.43,1.63c-0.09,1.98-0.26,3.36-0.49,4.16
				c-0.09,0.32-0.83,1.41-2.18,3.3c-1.86,2.55-3.36,5.36-4.53,8.46c-0.37,1.23-0.63,2.24-0.77,3.04c-0.03,0.66-0.06,1.09-0.11,1.29
				c-0.11,0.4-0.4,0.69-0.86,0.95c-0.26,0.14-0.54,0.17-0.83,0.09c-0.29-0.09-0.43-0.29-0.37-0.6c0.32-0.32,0.54-0.63,0.66-0.86
				c0.09-0.57,0.06-1.06-0.14-1.41c-0.52-0.92-1.06-1.43-1.63-1.61c-0.26-0.09-0.72,0.06-1.41,0.43c-0.63,0.34-1.2,0.43-1.78,0.26
				c-0.43-0.11-1.32-0.54-2.7-1.23c-0.06,0.66-0.11,1.09-0.17,1.29c-0.14,0.49-0.54,0.83-1.18,1.03c-0.49,0.14-0.8,0.2-1,0.14
				c-0.23-0.06-0.29-0.26-0.2-0.54c0.14-0.17,0.34-0.34,0.6-0.57C314,246.31,314.08,245.7,314.17,245.42z M322.23,236.07
				c-0.37,1.23-0.69,2.18-0.98,2.87l2.07,0.66C323.26,238.27,322.89,237.1,322.23,236.07z"/>
		</g>
	</g>
</g>
</svg>
