<?xml version="1.0" encoding="utf-8"?>
<!-- Generator: Adobe Illustrator 28.3.0, SVG Export Plug-In . SVG Version: 6.00 Build 0)  -->
<svg version="1.0" id="SSU_logo" xmlns="http://www.w3.org/2000/svg" xmlns:xlink="http://www.w3.org/1999/xlink" x="0px" y="0px"
	 viewBox="0 0 142 142" style="enable-background:new 0 0 142 142;" xml:space="preserve">
<style type="text/css">
	.st0{display:none;fill-rule:evenodd;clip-rule:evenodd;fill:none;}
	.st1{fill:#FFFFFF;}
	.st2{fill-rule:evenodd;clip-rule:evenodd;fill:#ABA95D;}
	.st3{fill-rule:evenodd;clip-rule:evenodd;fill:#FFFFFF;}
	.st4{fill:#ACAA5E;}
	.st5{fill-rule:evenodd;clip-rule:evenodd;fill:none;stroke:#ACAA5E;stroke-miterlimit:10;}
	.st6{fill-rule:evenodd;clip-rule:evenodd;fill:#ACAA5E;}
</style>
<g id="fist">
</g>
<g id="inner_circle">
</g>
<g id="outer_circle">
</g>
<g id="left_dot">
</g>
<g id="right_dot">
</g>
<g id="SHITO-RYU_type">
</g>
<g id="SHUKOKAI_UNION_type">
</g>
<g id="YAMADA-HA_type">
	<g>
		<g>
			<circle class="st1" cx="71.25" cy="71.25" r="68.75"/>
			<path class="st1" d="M71.25,140.25c-38.05,0-69-30.95-69-69s30.95-69,69-69s69,30.95,69,69S109.3,140.25,71.25,140.25z
				 M71.25,2.75c-37.77,0-68.5,30.73-68.5,68.5s30.73,68.5,68.5,68.5s68.5-30.73,68.5-68.5S109.02,2.75,71.25,2.75z"/>
		</g>
		<path class="st2" d="M36.61,44.71c7.18-1.2,8.12-1.68,14.1-6.41c0,7.24-3.29,10.78-8.37,13.11c0,0.24-5.57,11.41-5.87,12.91
			c2.21,2.69,7.48,8.3,10.11,12.85c4.25,1.08,14.53,1.91,19.37,5.74c0,0.12,6.52,2.95,6.76,4.92c0.06,0.06-3.22,5.98-3.22,5.8
			c-4.49-2.21-12.46-9.16-28.31-8.38c-3.35-4.37-9.68-14.3-14.59-18.9C28.15,63.54,35.3,50.33,36.61,44.71z"/>
		<path class="st2" d="M50.32,57.8c1.08-0.24,4.14-0.64,5.94-0.16c0.06-3.71-2.11-25.7,7.1-27.02c11.78-2.03,4.73,25.78,0.84,34.39
			c-6.16,8.79-10.68,4.31-12.29-3.29c-2.57,0.6-5.8,0.33-6.58,0.27c2.27,14.18,10.69,16.13,19.96,12.13
			c6.88,4.01,0.64,8.93,0.64,8.93s5.94,4.07,6.77,4.73c0.12-0.06,3.5-8.31,5.35-8.61c3.65-0.54,9.47,4.99,16.7,7.09
			c2.93,0.48,17.02-6.3,20.25-23.1c-0.06-3.11-1.78-5.31-2.62-6.03c1.61-5.44-1.39-9.26-4.02-9.97c1.08-5.98-4.87-6.77-10.08-6.12
			C95,27.44,88.15,24.36,75.89,29.63c-5.62-7.66-15.88-6.07-19.59-3.08C52.59,29.66,50.26,51.64,50.32,57.8z"/>
		<path class="st3" d="M76.16,37.97c5.8-4.25,14.89-6.88,16.03,3.83c-1.56,8.49-9.57,24.16-11.13,26.62
			c-1.85,3.89-7.6,6.46-10.89,3.23c-0.94-3.36,1.07-7.03,2.35-11.48C74.71,52.61,75.39,47.17,76.16,37.97z"/>
		<path class="st3" d="M97.09,45.87c9.88,1.74,9.91,11.82,1.07,21.58c-2.13,2.69-4.19,5.36-7.47,7.84
			c-3.71,3.59-6.22,1.44-6.16-0.06C84.65,70.75,95.18,53.64,97.09,45.87z"/>
		<path class="st3" d="M108.16,61.6c5.62-0.54-0.6,8.07-3.95,12.74c-2.99,5.08-9.09,10.35-11.24,5.14
			C101.1,72.72,107.08,63.57,108.16,61.6z"/>
		<path class="st4" d="M71.32,122.52c-28.31,0-51.34-23.03-51.34-51.34s23.03-51.34,51.34-51.34s51.34,23.03,51.34,51.34
			S99.63,122.52,71.32,122.52z M71.32,20.84c-27.76,0-50.34,22.58-50.34,50.34s22.58,50.34,50.34,50.34s50.34-22.58,50.34-50.34
			S99.08,20.84,71.32,20.84z"/>
		<circle class="st5" cx="71.43" cy="71.21" r="68.54"/>
		<circle class="st6" cx="12.63" cy="60.04" r="4.09"/>
		<path class="st6" d="M133.84,60.04c0,2.26-1.83,4.09-4.09,4.09c-2.26,0-4.09-1.83-4.09-4.09c0-2.26,1.83-4.09,4.09-4.09
			C132.01,55.95,133.84,57.78,133.84,60.04z"/>
		<g>
			<path class="st4" d="M25.28,30.58l-0.7,0.88c-0.31-0.24-0.53-0.4-0.68-0.48c-0.28-0.15-0.56-0.12-0.83,0.08
				c-0.17,0.13-0.42,0.4-0.76,0.81c-0.47,0.58-0.75,0.97-0.86,1.17c-0.2,0.36-0.22,0.67-0.06,0.95c0.1,0.16,0.26,0.33,0.49,0.52
				c0.29,0.23,0.54,0.37,0.75,0.43c0.24,0.06,0.5-0.06,0.8-0.35c0.11-0.11,0.4-0.44,0.89-1c0.54-0.62,0.92-1.03,1.15-1.22
				c0.47-0.39,0.94-0.52,1.43-0.41c0.31,0.08,0.71,0.3,1.19,0.68c0.69,0.55,1.08,1.05,1.16,1.48c0.08,0.45-0.04,0.91-0.34,1.38
				c-0.23,0.36-0.58,0.83-1.03,1.4c-0.55,0.69-0.96,1.13-1.22,1.3c-0.62,0.41-1.29,0.39-2.03-0.07c-0.16-0.1-0.44-0.3-0.85-0.61
				l0.7-0.88c0.12,0.1,0.21,0.16,0.24,0.19c0.32,0.25,0.57,0.41,0.75,0.48c0.18,0.07,0.36,0.09,0.53,0.03
				c0.16-0.05,0.33-0.18,0.53-0.41c0.21-0.24,0.46-0.54,0.74-0.89c0.38-0.48,0.63-0.83,0.75-1.06c0.12-0.23,0.16-0.43,0.13-0.6
				c-0.04-0.21-0.32-0.53-0.84-0.94c-0.25-0.2-0.46-0.32-0.62-0.36c-0.23-0.06-0.48,0.03-0.75,0.3c-0.13,0.13-0.44,0.47-0.93,1.04
				c-0.49,0.56-0.8,0.9-0.94,1.04c-0.45,0.43-0.92,0.63-1.4,0.62c-0.41,0-0.87-0.21-1.39-0.63c-0.75-0.6-1.12-1.17-1.11-1.71
				c0.01-0.42,0.15-0.84,0.44-1.28c0.21-0.31,0.47-0.65,0.77-1.04c0.58-0.73,1.03-1.2,1.34-1.4c0.63-0.41,1.31-0.36,2.04,0.15
				C24.86,30.25,25.03,30.38,25.28,30.58z"/>
			<path class="st4" d="M35.54,18.37l4.99,6.57l-0.89,0.68l-2.26-2.97l-3.75,2.85l2.26,2.97l-0.89,0.68L30,22.58l0.89-0.68
				l2.14,2.82l3.75-2.85l-2.14-2.82L35.54,18.37z"/>
			<path class="st4" d="M44.62,13.36l3.52,7.46l-1.01,0.48l-3.52-7.46L44.62,13.36z"/>
			<path class="st4" d="M56.45,10.37l1.75,6.97l-1.09,0.27l-1.75-6.97l-2.65,0.67l-0.26-1.03l6.36-1.6l0.26,1.03L56.45,10.37z"/>
			<path class="st4" d="M70.8,7.45c0.62-0.01,1.08,0.01,1.4,0.05c0.32,0.04,0.6,0.11,0.84,0.21c0.7,0.29,1.12,0.96,1.26,2.01
				c0.04,0.28,0.06,0.79,0.07,1.54c0.01,1.27,0,2.07-0.04,2.4c-0.07,0.54-0.19,0.95-0.36,1.25s-0.43,0.53-0.77,0.7
				c-0.35,0.17-0.8,0.27-1.35,0.3c-0.29,0.02-0.65,0.03-1.09,0.03c-0.74,0.01-1.26-0.01-1.58-0.05c-0.31-0.04-0.6-0.12-0.87-0.24
				c-0.5-0.24-0.83-0.65-1-1.23c-0.12-0.4-0.19-0.88-0.2-1.43c-0.01-0.36-0.02-0.9-0.03-1.62c-0.01-0.76,0.01-1.29,0.04-1.59
				c0.12-1.04,0.53-1.71,1.22-2.02c0.31-0.14,0.71-0.22,1.22-0.26C69.9,7.46,70.31,7.45,70.8,7.45z M70.59,8.48
				c-0.54,0-0.93,0.02-1.16,0.04s-0.42,0.07-0.58,0.14c-0.28,0.12-0.47,0.38-0.56,0.79c-0.06,0.28-0.09,0.61-0.09,0.99l0.01,1.28
				c0.01,1,0.02,1.59,0.04,1.78c0.04,0.38,0.11,0.67,0.21,0.86c0.1,0.19,0.25,0.33,0.45,0.41c0.18,0.07,0.44,0.12,0.78,0.13
				c0.27,0.01,0.63,0.02,1.06,0.01c0.58,0,1-0.02,1.25-0.04s0.45-0.07,0.6-0.13c0.28-0.12,0.47-0.38,0.56-0.79
				c0.06-0.29,0.09-0.62,0.09-0.99l-0.01-1.28c-0.01-1-0.02-1.59-0.04-1.78c-0.04-0.38-0.11-0.67-0.21-0.86
				c-0.1-0.19-0.25-0.33-0.45-0.41c-0.18-0.07-0.45-0.12-0.81-0.13C71.46,8.48,71.08,8.47,70.59,8.48z"/>
			<path class="st4" d="M81.61,12.14l3.27,0.67l-0.21,1.05l-3.27-0.67L81.61,12.14z"/>
			<path class="st4" d="M90.38,19.13l3.31-7.56l3.81,1.67c0.67,0.29,1.13,0.63,1.38,1.01c0.22,0.33,0.3,0.73,0.23,1.18
				c-0.04,0.27-0.15,0.6-0.32,0.99c-0.28,0.65-0.57,1.08-0.87,1.3c-0.32,0.24-0.72,0.28-1.21,0.12c0.72,0.37,0.88,1.01,0.49,1.92
				l-0.86,1.98l-1.03-0.45l0.78-1.78c0.2-0.46,0.24-0.83,0.1-1.09c-0.15-0.26-0.44-0.47-0.88-0.66l-2.61-1.14l-1.3,2.97L90.38,19.13
				z M93.11,15.7l2.51,1.1c0.51,0.22,0.91,0.32,1.2,0.28c0.33-0.04,0.61-0.31,0.82-0.8c0.29-0.67,0.42-1.11,0.37-1.34
				c-0.06-0.28-0.36-0.53-0.9-0.77l-2.79-1.22L93.11,15.7z"/>
			<path class="st4" d="M112.6,22.76l-5.49,1.88l-2.08,2.73l-0.89-0.68l2.08-2.73l0.4-5.75l1.05,0.8l-0.26,4.37l4.13-1.43
				L112.6,22.76z"/>
			<path class="st4" d="M122.21,33.14l0.7,0.87l-4.47,3.59c-0.55,0.44-1,0.7-1.34,0.78c-0.52,0.12-1.03,0-1.53-0.36
				c-0.27-0.2-0.69-0.66-1.28-1.39c-0.42-0.52-0.7-0.9-0.86-1.14c-0.16-0.24-0.27-0.48-0.35-0.7c-0.16-0.5-0.15-0.95,0.05-1.35
				c0.16-0.33,0.51-0.71,1.05-1.14l4.47-3.59l0.7,0.87l-4.47,3.59c-0.46,0.37-0.72,0.64-0.79,0.83c-0.09,0.23-0.05,0.52,0.13,0.85
				c0.11,0.2,0.36,0.54,0.75,1.04c0.58,0.72,1,1.17,1.25,1.33c0.23,0.15,0.5,0.15,0.81,0c0.18-0.08,0.41-0.24,0.71-0.48
				L122.21,33.14z"/>
		</g>
		<g>
			<path class="st4" d="M16.31,89.73l-0.3-1.07c0.37-0.1,0.63-0.19,0.78-0.27c0.28-0.14,0.42-0.38,0.42-0.71
				c0-0.21-0.07-0.57-0.21-1.08c-0.2-0.72-0.35-1.17-0.44-1.37c-0.17-0.37-0.41-0.57-0.73-0.6c-0.19-0.02-0.42,0.02-0.7,0.09
				c-0.36,0.1-0.62,0.22-0.78,0.35c-0.18,0.16-0.25,0.44-0.19,0.85c0.02,0.15,0.12,0.58,0.29,1.3c0.19,0.79,0.29,1.34,0.32,1.64
				c0.04,0.6-0.13,1.06-0.51,1.39c-0.24,0.21-0.66,0.39-1.24,0.56c-0.85,0.24-1.47,0.26-1.87,0.07c-0.4-0.2-0.71-0.56-0.91-1.08
				c-0.15-0.4-0.33-0.95-0.52-1.64c-0.24-0.85-0.35-1.43-0.34-1.74c0.03-0.74,0.44-1.27,1.24-1.59c0.17-0.07,0.5-0.18,0.99-0.33
				l0.3,1.07c-0.15,0.04-0.25,0.07-0.3,0.08c-0.39,0.11-0.66,0.22-0.83,0.33c-0.17,0.1-0.28,0.24-0.33,0.41
				c-0.05,0.16-0.05,0.38,0.02,0.66c0.07,0.31,0.17,0.69,0.29,1.11c0.16,0.59,0.3,0.99,0.41,1.22c0.11,0.23,0.25,0.38,0.41,0.45
				c0.2,0.09,0.61,0.05,1.25-0.13c0.31-0.08,0.52-0.18,0.65-0.29c0.19-0.15,0.25-0.41,0.2-0.78c-0.03-0.18-0.12-0.63-0.3-1.35
				c-0.17-0.72-0.26-1.17-0.29-1.36C13,85.3,13.1,84.8,13.39,84.42c0.24-0.32,0.68-0.57,1.32-0.75c0.92-0.26,1.59-0.22,2.02,0.1
				c0.33,0.25,0.59,0.62,0.77,1.1c0.13,0.35,0.25,0.76,0.38,1.22c0.25,0.9,0.36,1.53,0.34,1.89c-0.04,0.74-0.47,1.26-1.31,1.56
				C16.83,89.58,16.62,89.64,16.31,89.73z"/>
			<path class="st4" d="M23.5,99.75l-7.29,3.76l-0.51-0.99l3.3-1.7l-2.15-4.16l-3.3,1.7l-0.51-0.99l7.29-3.76l0.51,0.99l-3.13,1.61
				l2.15,4.16l3.13-1.61L23.5,99.75z"/>
			<path class="st4" d="M29.9,108.32l0.71,0.86l-4.39,3.63c-0.54,0.45-0.98,0.71-1.32,0.8c-0.52,0.13-1.03,0.02-1.53-0.34
				c-0.27-0.19-0.7-0.65-1.29-1.36c-0.42-0.51-0.71-0.88-0.87-1.12c-0.16-0.24-0.28-0.47-0.36-0.69c-0.17-0.5-0.16-0.94,0.03-1.34
				c0.16-0.33,0.5-0.71,1.03-1.15l4.39-3.63l0.71,0.86l-4.39,3.63c-0.45,0.37-0.71,0.65-0.78,0.83c-0.09,0.23-0.04,0.51,0.14,0.84
				c0.11,0.2,0.36,0.54,0.76,1.02c0.59,0.71,1.01,1.15,1.26,1.3c0.23,0.15,0.5,0.14,0.81-0.01c0.17-0.08,0.41-0.25,0.7-0.49
				L29.9,108.32z"/>
			<path class="st4" d="M35.11,113.4l-2.18,2.72l0.58,0.46l4.82-0.61l1.15,0.92l-5.5,0.69l0.72,5.99l-1.2-0.96l-0.62-5.23
				l-0.58-0.46l-2.31,2.88l-0.87-0.7l5.12-6.4L35.11,113.4z"/>
			<path class="st4" d="M45.83,120.47c0.54,0.28,0.95,0.52,1.21,0.7c0.26,0.18,0.48,0.37,0.64,0.58c0.48,0.58,0.53,1.37,0.17,2.35
				c-0.1,0.27-0.31,0.73-0.66,1.38c-0.58,1.12-0.97,1.81-1.16,2.08c-0.31,0.44-0.61,0.75-0.9,0.93c-0.29,0.18-0.62,0.27-1,0.25
				c-0.39-0.01-0.83-0.13-1.33-0.37c-0.26-0.12-0.58-0.28-0.97-0.48c-0.65-0.34-1.11-0.6-1.36-0.78c-0.26-0.18-0.47-0.38-0.65-0.62
				c-0.32-0.44-0.42-0.96-0.31-1.55c0.08-0.41,0.25-0.86,0.49-1.35c0.16-0.32,0.4-0.8,0.73-1.44c0.35-0.67,0.61-1.13,0.78-1.37
				c0.59-0.85,1.26-1.25,2.02-1.2c0.34,0.02,0.73,0.14,1.19,0.34C45.03,120.06,45.39,120.24,45.83,120.47z M45.16,121.28
				c-0.48-0.25-0.82-0.42-1.03-0.5c-0.21-0.09-0.4-0.14-0.57-0.15c-0.3-0.03-0.59,0.12-0.86,0.43c-0.19,0.22-0.37,0.49-0.54,0.83
				L41.57,123c-0.46,0.88-0.72,1.41-0.79,1.58c-0.14,0.35-0.21,0.64-0.22,0.85c0,0.21,0.06,0.41,0.2,0.57
				c0.12,0.15,0.33,0.31,0.63,0.48c0.23,0.14,0.54,0.31,0.93,0.51c0.51,0.27,0.89,0.45,1.11,0.55c0.23,0.1,0.42,0.15,0.58,0.17
				c0.3,0.03,0.59-0.12,0.87-0.43c0.19-0.22,0.37-0.5,0.54-0.83l0.59-1.13c0.46-0.88,0.72-1.41,0.79-1.58
				c0.14-0.36,0.22-0.64,0.22-0.85c0-0.21-0.07-0.4-0.21-0.57c-0.13-0.15-0.34-0.31-0.65-0.49
				C45.93,121.68,45.59,121.5,45.16,121.28z"/>
			<path class="st4" d="M54.39,124.18l-0.94,3.36l0.72,0.2l4.2-2.45l1.42,0.4l-4.79,2.78l3.01,5.23l-1.48-0.42l-2.62-4.57l-0.72-0.2
				l-1,3.56l-1.07-0.3l2.22-7.9L54.39,124.18z"/>
			<path class="st4" d="M68.7,133.26l-4.03-0.3l-0.77,1.64l-1.18-0.09l3.71-7.95l1.41,0.1l2.56,8.41L69.22,135L68.7,133.26z
				 M68.4,132.3l-1.34-4.49l-1.97,4.25L68.4,132.3z"/>
			<path class="st4" d="M76.32,126.56l0.65,8.18l-1.11,0.09l-0.65-8.18L76.32,126.56z"/>
			<path class="st4" d="M93.75,122.12l1.04-0.41l2.08,5.31c0.25,0.65,0.37,1.15,0.34,1.51c-0.04,0.53-0.3,0.98-0.8,1.34
				c-0.27,0.2-0.84,0.46-1.7,0.8c-0.61,0.24-1.06,0.4-1.34,0.48c-0.28,0.08-0.54,0.12-0.77,0.12c-0.52,0.01-0.95-0.14-1.27-0.45
				c-0.26-0.25-0.52-0.7-0.77-1.34l-2.08-5.31l1.04-0.41l2.08,5.31c0.21,0.54,0.39,0.87,0.55,1c0.2,0.15,0.48,0.2,0.84,0.13
				c0.22-0.04,0.62-0.18,1.2-0.4c0.86-0.34,1.4-0.6,1.63-0.79c0.21-0.17,0.29-0.43,0.24-0.77c-0.03-0.19-0.11-0.46-0.24-0.82
				L93.75,122.12z"/>
			<path class="st4" d="M105.33,115.33l4.57,6.81l-1.37,0.92l-7.73-3.44l4,5.95l-0.92,0.62l-4.57-6.81l1.36-0.92l7.74,3.44l-4-5.95
				L105.33,115.33z"/>
			<path class="st4" d="M109.92,111.21l5.64,5.96l-0.81,0.77l-5.64-5.95L109.92,111.21z"/>
			<path class="st4" d="M115.45,104.83c0.37-0.49,0.67-0.84,0.9-1.07s0.45-0.41,0.68-0.53c0.66-0.37,1.44-0.29,2.34,0.24
				c0.25,0.14,0.66,0.44,1.25,0.89c1,0.77,1.62,1.27,1.85,1.5c0.38,0.38,0.63,0.73,0.76,1.04s0.15,0.66,0.08,1.03
				c-0.08,0.38-0.27,0.79-0.59,1.24c-0.16,0.24-0.38,0.52-0.64,0.87c-0.45,0.58-0.78,0.98-1,1.21s-0.46,0.4-0.72,0.53
				c-0.49,0.24-1.02,0.25-1.58,0.03c-0.39-0.15-0.8-0.39-1.24-0.72c-0.29-0.21-0.72-0.53-1.29-0.97c-0.6-0.46-1.01-0.8-1.22-1
				c-0.74-0.73-1.01-1.46-0.83-2.19c0.08-0.33,0.26-0.7,0.54-1.11C114.91,105.55,115.15,105.22,115.45,104.83z M116.13,105.63
				c-0.33,0.43-0.55,0.74-0.67,0.93c-0.12,0.19-0.21,0.37-0.25,0.54c-0.08,0.29,0.01,0.6,0.27,0.92c0.18,0.22,0.42,0.45,0.72,0.67
				l1.01,0.77c0.79,0.6,1.26,0.95,1.42,1.05c0.32,0.2,0.59,0.32,0.8,0.36c0.21,0.04,0.41,0.01,0.6-0.1c0.17-0.1,0.36-0.27,0.58-0.54
				c0.18-0.21,0.4-0.48,0.66-0.83c0.35-0.46,0.6-0.79,0.73-1c0.13-0.21,0.22-0.39,0.26-0.55c0.08-0.29-0.01-0.6-0.28-0.93
				c-0.19-0.23-0.42-0.45-0.72-0.67l-1.01-0.77c-0.79-0.6-1.26-0.95-1.42-1.05c-0.33-0.2-0.59-0.33-0.8-0.36
				c-0.21-0.04-0.41,0-0.6,0.1c-0.17,0.1-0.37,0.28-0.59,0.55C116.66,104.94,116.42,105.24,116.13,105.63z"/>
			<path class="st4" d="M123.22,91.51l7.42,3.49l-0.7,1.49l-8.4,1.03l6.49,3.05l-0.47,1.01l-7.42-3.49l0.7-1.48l8.41-1.03
				l-6.49-3.05L123.22,91.51z"/>
		</g>
		<g>
			<path d="M29.05,80.9c-0.12,0.03-0.22,0.2-0.29,0.51c-0.07,0.27-0.2,0.44-0.41,0.5c-0.11,0.03-0.41,0.08-0.88,0.15
				c-0.4,0.04-0.7,0.07-0.9,0.07c0.2,0.35,0.45,0.78,0.77,1.27c0.42,0.64,0.8,1.29,1.14,1.95c0.14,0.26,0.26,0.54,0.36,0.82
				c0.29,0.08,0.56,0.14,0.81,0.18c-0.35,0.1-0.58,0.23-0.69,0.4c-0.09,0.17-0.18,0.26-0.27,0.29c-0.14,0.04-0.24-0.08-0.33-0.36
				c-0.14-0.47-0.26-0.82-0.37-1.04c-0.29-0.57-0.6-1.1-0.93-1.58c-0.52-0.77-0.85-1.27-1.01-1.5c-0.23-0.16-0.35-0.28-0.38-0.39
				c-0.04-0.13-0.01-0.25,0.08-0.37c0.13-0.16,0.25-0.26,0.37-0.3c0.12-0.03,0.34-0.06,0.67-0.09c0.47-0.04,0.84-0.1,1.1-0.18
				c0.12-0.03,0.27-0.14,0.46-0.32c0.16-0.16,0.32-0.26,0.5-0.32c0.19-0.05,0.33-0.05,0.44,0.01c0.14,0.08,0.23,0.17,0.27,0.27
				l-0.06,0.08C29.29,80.89,29.14,80.88,29.05,80.9z M31.12,87.39c-0.12,0.2-0.24,0.31-0.34,0.34c-0.36,0.1-0.93,0.2-1.72,0.28
				c-0.53,0.06-0.97,0.02-1.32-0.12c-0.24-0.1-0.38-0.2-0.41-0.3c-0.01-0.05,0.06-0.14,0.24-0.26c0.11-0.25,0.23-0.49,0.38-0.7
				c0.09,0.31,0.19,0.54,0.3,0.71c0.8-0.05,1.64-0.2,2.5-0.45c0.24-0.37,0.39-0.56,0.44-0.58c0.07-0.02,0.11,0.01,0.14,0.09
				c0.02,0.09,0.03,0.24,0,0.46C31.31,87.01,31.24,87.19,31.12,87.39z M32.75,83.63c-0.12,0.03-0.34,0.08-0.67,0.12
				c-1.21,0.32-2,0.54-2.37,0.65c-0.38,0.11-0.74,0.16-1.08,0.13c-0.38-0.03-0.6-0.12-0.64-0.28c-0.02-0.09,0.04-0.19,0.2-0.3
				c0.26-0.2,0.45-0.39,0.55-0.57c0.02,0.15,0.05,0.32,0.11,0.5c0.5-0.06,0.98-0.17,1.45-0.3c0.48-0.14,1.23-0.4,2.25-0.79
				c0.13-0.35,0.28-0.58,0.43-0.69c0.16,0.03,0.26,0.13,0.31,0.29c0.04,0.12,0,0.33-0.12,0.63C33.02,83.4,32.88,83.6,32.75,83.63z"
				/>
			<path d="M33.7,89.51c-0.15,0.46-0.28,0.74-0.41,0.83c-1,0.73-1.65,1.23-1.95,1.51c-0.51,0.47-0.79,0.73-0.85,0.76
				c-0.16,0.09-0.27,0.08-0.33-0.03c-0.06-0.11-0.02-0.28,0.11-0.52c0.24-0.32,0.86-0.84,1.83-1.54c0.34-0.24,0.6-0.47,0.79-0.67
				c0.33-0.38,0.56-0.61,0.71-0.7c0.15-0.08,0.24-0.1,0.27-0.07l0.01,0.09C33.81,89.27,33.75,89.39,33.7,89.51z M37.33,95.61
				c-0.06,0.03-0.19,0.06-0.41,0.09c-1,0.34-1.77,0.6-2.32,0.75c-0.77,0.22-1.41,0.3-1.93,0.27c-0.27-0.03-0.47-0.16-0.6-0.39
				c-0.06-0.1-0.04-0.18,0.06-0.23c0.06-0.04,0.15-0.05,0.27-0.04c0.12-0.07,0.21-0.15,0.29-0.25c-0.14-0.06-0.23-0.12-0.27-0.2
				c-0.18-0.32-0.45-0.75-0.8-1.29c-0.52-0.74-0.78-1.12-0.81-1.16c-0.09-0.16-0.12-0.36-0.08-0.61c0.04-0.06,0.09-0.12,0.17-0.17
				c0.06-0.01,0.12,0.02,0.16,0.06c0.03,0.14,0.05,0.27,0.07,0.39c0.21,0.29,0.46,0.62,0.75,0.98l0.79-0.45
				c-0.34-0.26-0.68-0.54-1.02-0.84c0.48,0.31,0.88,0.55,1.22,0.73l0.51-0.29c-0.46-0.6-0.71-0.94-0.76-1.01
				c-0.11-0.19-0.15-0.39-0.13-0.59l0.13-0.05c0.17,0.17,0.56,0.64,1.18,1.41l1.07-0.61c0-0.17,0.03-0.29,0.11-0.33l0.09,0
				c0.1,0,0.19,0.05,0.24,0.15c0.05,0.09,0.08,0.25,0.09,0.46c0.01,0.23-0.05,0.38-0.16,0.45c-0.06,0.03-0.2,0.08-0.42,0.14
				c-0.21,0.1-0.4,0.19-0.58,0.29c0.34,0.41,0.55,0.66,0.62,0.77c0.15,0.33,0.16,0.56,0.01,0.68c-0.11,0.05-0.26-0.02-0.44-0.23
				c-0.54-0.3-0.95-0.54-1.24-0.73l-1.01,0.5c0.09,0.15,0.21,0.32,0.33,0.49c0.2,0.12,0.32,0.22,0.36,0.3
				c0.05,0.09,0.04,0.3-0.02,0.63c-0.09,0.17-0.12,0.31-0.09,0.41c0.15,0.08,0.69-0.02,1.61-0.27c1.19-0.33,2.04-0.65,2.57-0.95
				c0.09-0.05,0.11-0.17,0.06-0.37c-0.05-0.14-0.18-0.39-0.39-0.77c-0.37-0.65-0.92-1.43-1.66-2.32c-0.45-0.49-0.71-0.8-0.78-0.91
				c-0.09-0.16-0.23-0.36-0.43-0.62l0.04-0.09c0.12-0.04,0.39,0.11,0.81,0.47c0.25,0.2,0.74,0.8,1.46,1.81
				c0.52,0.7,0.96,1.37,1.32,2c0.21,0.36,0.28,0.71,0.21,1.03C37.53,95.36,37.44,95.54,37.33,95.61z M33.95,93.71l-0.2-0.27
				c-0.06,0.03-0.14,0.07-0.23,0.12C33.66,93.62,33.8,93.67,33.95,93.71z"/>
			<path d="M38.66,98.46c0.08,0.24,0.06,0.42-0.08,0.55c-0.1,0.1-0.42,0.25-0.95,0.47c-0.73,0.37-1.33,0.77-1.8,1.21
				c-0.12,0.11-0.22,0.22-0.3,0.31c0.72-0.07,1.52-0.25,2.41-0.56c-0.54,0.44-1.36,0.85-2.46,1.24c-0.16,0.05-0.3,0.12-0.42,0.22
				c-0.11,0.08-0.2,0.08-0.26,0.02c-0.09-0.09-0.06-0.32,0.09-0.69c0.1-0.24,0.3-0.5,0.6-0.78c0.35-0.32,0.85-0.7,1.5-1.13
				c0.56-0.35,0.89-0.56,0.98-0.65c0.03-0.03,0.05-0.16,0.04-0.38c0-0.26,0.05-0.44,0.16-0.55c0.24-0.22,0.4-0.27,0.51-0.17
				c0.04,0.04,0,0.16-0.12,0.34C38.6,98.18,38.64,98.36,38.66,98.46z M43.78,100.82c-0.09,0.08-0.27,0.09-0.55,0.01
				c-1.27-0.27-2.19-0.62-2.78-1.04c0.04,0.18,0.06,0.36,0.06,0.54c-0.01,0.25-0.06,0.42-0.15,0.51c-0.08,0.07-0.28,0.23-0.6,0.46
				c-1.28,0.93-2.31,1.43-3.11,1.49c-0.37,0.02-0.6-0.01-0.68-0.09c-0.08-0.09-0.08-0.17,0-0.25c0.05-0.05,0.15-0.1,0.28-0.17
				c0.09-0.09,0.21-0.2,0.35-0.34c0,0.12,0.01,0.25,0.02,0.38c0.98-0.17,2.1-0.84,3.37-2.02c0.03-0.35,0.11-0.59,0.23-0.7
				c0.09-0.08,0.18-0.09,0.26-0.02c0.06,0.04,0.12,0.09,0.19,0.13c0.93,0.27,1.86,0.41,2.78,0.42c0.02-0.1,0.04-0.22,0.08-0.36
				c0.11-0.06,0.2-0.05,0.28,0.03c0.11,0.12,0.17,0.24,0.18,0.35C43.97,100.47,43.91,100.7,43.78,100.82z M42.55,102.09
				c-0.65-0.16-1.23-0.39-1.74-0.66c0.02,0.08,0.04,0.22,0.03,0.4c0,0.17-0.09,0.33-0.26,0.5c-0.11,0.1-0.25,0.23-0.43,0.39
				c0.76,0.27,1.54,0.44,2.37,0.49c0.07-0.12,0.14-0.25,0.2-0.38l0.08,0.03c0.14,0.15,0.2,0.34,0.19,0.55
				c-0.02,0.23-0.08,0.39-0.19,0.5c-0.11,0.1-0.35,0.08-0.71-0.05c-0.86-0.34-1.53-0.68-2.01-1.02c0.12,0.31,0.19,0.5,0.22,0.59
				c0.21,0.63,0.32,1.27,0.34,1.92c0.02,0.56-0.11,0.97-0.4,1.24c-0.14,0.13-0.26,0.15-0.35,0.05c-0.1-0.11-0.11-0.38-0.03-0.83
				c0.04-0.22,0.07-0.82,0.1-1.79c0.01-0.46-0.01-0.82-0.06-1.09c-0.6,0.51-1.29,1.12-2.07,1.84c-0.2,0.19-0.35,0.23-0.46,0.12
				c-0.08-0.09-0.08-0.24,0-0.44c0.08-0.19,0.17-0.33,0.25-0.41c0.05-0.05,0.14-0.1,0.28-0.14c0.97-0.78,1.72-1.4,2.24-1.89
				c0.19-0.18,0.3-0.31,0.32-0.4c0.04-0.24,0.08-0.4,0.15-0.45c0.04-0.04,0.13-0.03,0.27,0.02c0.55,0.18,1.19,0.27,1.94,0.25
				c0.06-0.09,0.11-0.17,0.16-0.25c0.05-0.04,0.1-0.04,0.14,0.01c0.12,0.13,0.18,0.23,0.19,0.3c0.02,0.28-0.04,0.49-0.17,0.61
				C43.04,102.19,42.85,102.19,42.55,102.09z M40.38,98.37c-0.05-0.06-0.11-0.12-0.16-0.19c-0.13-0.13-0.31-0.29-0.55-0.49
				c0.27,0.13,0.5,0.17,0.69,0.11c0.05-0.31,0.04-0.57-0.03-0.78c-0.02-0.06-0.05-0.12-0.11-0.2l0.04-0.09
				c0.16-0.06,0.3-0.02,0.42,0.11c0.18,0.19,0.28,0.4,0.31,0.62c0.06,0.41-0.02,0.72-0.23,0.91C40.62,98.5,40.49,98.5,40.38,98.37z"
				/>
			<path d="M43.45,109.62c-0.15,0.1-0.27,0.12-0.36,0.06c-0.12-0.08-0.18-0.21-0.17-0.38c0.02-0.21,0.07-0.38,0.15-0.5
				c0.08-0.12,0.2-0.24,0.35-0.34c0.26-0.17,0.43-0.24,0.5-0.19c0.04,0.03,0.03,0.1-0.04,0.2c-0.14,0.21-0.2,0.4-0.19,0.56
				c0.46,0.13,0.97,0.14,1.53,0.05c-0.61,0.31-1.07,0.46-1.38,0.45C43.67,109.53,43.54,109.55,43.45,109.62z M50.18,105.23
				c-0.06,0.09-0.27,0.18-0.65,0.28c-1.04,0.22-1.99,0.44-2.87,0.63c0.5,0.21,1.17,0.44,1.99,0.7l0.65-0.08
				c0.04-0.05,0.07-0.11,0.12-0.18c0.05-0.08,0.12-0.09,0.2-0.04c0.06,0.04,0.13,0.2,0.2,0.47c0.03,0.13,0.02,0.24-0.05,0.33
				c-0.04,0.06-0.19,0.09-0.45,0.11c-1.11,0.04-2.2,0.14-3.26,0.3c1.41,0.51,2.19,0.77,2.34,0.77c0.12-0.01,0.25-0.05,0.4-0.14
				c-0.03-0.11-0.06-0.21-0.1-0.3c-0.03-0.08-0.04-0.13-0.01-0.17c0.04-0.06,0.11-0.06,0.2,0.01c0.11,0.07,0.26,0.24,0.45,0.51
				c0.19,0.27,0.3,0.54,0.33,0.83c0.03,0.27-0.05,0.54-0.23,0.81c-0.09,0.14-0.18,0.18-0.27,0.12c-0.06-0.04-0.11-0.1-0.14-0.17
				c-0.03-0.04-0.12-0.11-0.25-0.2c-0.19-0.12-0.36-0.27-0.51-0.45c0.26,0.09,0.49,0.15,0.67,0.18c0-0.39-0.04-0.76-0.14-1.12
				c-0.13,0.09-0.24,0.21-0.33,0.35c-0.12,0.18-0.34,0.24-0.65,0.16c-0.35-0.1-0.69-0.2-1-0.31c0.07,0.3,0.11,0.53,0.12,0.71
				c0,0.21-0.07,0.42-0.22,0.64c-0.35,0.52-0.61,0.92-0.8,1.21c-0.16,0.24-0.33,0.4-0.53,0.48c-0.22,0.09-0.4,0.09-0.56-0.01
				c-0.08-0.05-0.07-0.16,0.02-0.31c0.06-0.11,0.08-0.2,0.04-0.29c-0.13-0.29-0.23-0.7-0.31-1.25c0.22,0.4,0.48,0.72,0.79,0.95
				c0.48-0.7,0.79-1.16,0.94-1.37c0.17-0.26,0.2-0.57,0.07-0.93c-0.29-0.1-0.62-0.22-0.99-0.34c-0.27,0-0.46-0.04-0.57-0.11
				c-0.09-0.06-0.13-0.15-0.12-0.25c0.01-0.14,0.05-0.25,0.11-0.34c0.09-0.13,0.22-0.17,0.38-0.1c0.1,0.04,0.19,0.06,0.26,0.07
				c0.64-0.13,1.3-0.25,1.98-0.35c-0.43-0.13-0.77-0.23-1.05-0.29c-0.25-0.07-0.42-0.14-0.51-0.2c-0.09-0.06-0.13-0.17-0.13-0.33
				c0-0.16,0.03-0.27,0.07-0.34c0.06-0.09,0.19-0.15,0.4-0.2c1.15-0.26,2.26-0.59,3.36-0.99c-0.01-0.18,0-0.29,0.02-0.33
				c0.03-0.04,0.09-0.05,0.19-0.02c0.1,0.02,0.18,0.05,0.25,0.1c0.11,0.07,0.17,0.21,0.18,0.42
				C50.25,105.03,50.23,105.16,50.18,105.23z M48.73,112.05c-0.03,0.28-0.1,0.5-0.21,0.67s-0.24,0.21-0.37,0.12
				c-0.1-0.07-0.16-0.19-0.16-0.36c-0.01-0.19,0-0.42,0.03-0.7c0.03-0.31,0-0.63-0.09-0.94c-0.08-0.29-0.1-0.46-0.06-0.52
				c0.04-0.06,0.08-0.07,0.13-0.04c0.06,0.04,0.19,0.22,0.38,0.53C48.64,111.27,48.76,111.68,48.73,112.05z"/>
			<path d="M58.44,108.88c-0.02,0.06-0.08,0.17-0.18,0.31c-0.08,0.17-0.16,0.33-0.24,0.49c0.36,0.08,0.59,0.12,0.69,0.14
				c0.13,0.01,0.25,0.01,0.36-0.01c0.12,0.04,0.23,0.11,0.32,0.21c0.14,0.14,0.2,0.25,0.17,0.32c-0.04,0.11-0.14,0.15-0.29,0.12
				c-0.58-0.11-1.08-0.21-1.5-0.3l-0.24,0.53c0.43,0.1,0.91,0.23,1.44,0.4c0.19,0.03,0.34,0.07,0.45,0.11
				c0.1,0.04,0.2,0.16,0.29,0.38c0.08,0.18,0.11,0.31,0.08,0.4c-0.04,0.12-0.14,0.24-0.3,0.36c-0.52,0.58-0.86,0.93-1,1.05
				c-0.35,0.26-0.66,0.34-0.93,0.24c-0.05-0.02-0.04-0.11,0.02-0.27c-0.41-0.09-0.75-0.16-1.04-0.22c-0.14,0.43-0.27,0.83-0.41,1.21
				c0.85,0.43,1.5,0.87,1.95,1.31c0.64,0.62,0.89,1.12,0.75,1.5c-0.06,0.17-0.16,0.23-0.29,0.18c-0.12-0.04-0.42-0.39-0.89-1.05
				c-0.37-0.51-0.91-1.03-1.63-1.58c-0.26,0.76-0.41,1.2-0.46,1.34c-0.06,0.18-0.19,0.33-0.37,0.47c-0.15,0.12-0.27,0.16-0.36,0.12
				c-0.09-0.03-0.15-0.14-0.19-0.31c-0.5-0.55-0.76-1.11-0.79-1.67c0.31,0.54,0.68,0.91,1.13,1.08l0.53-1.4
				c-0.25-0.17-0.51-0.33-0.77-0.47c-0.55,0.22-1.1,0.45-1.66,0.68c-0.39,0.15-0.65,0.21-0.76,0.16c-0.1-0.04-0.13-0.12-0.09-0.24
				c0.06-0.17,0.23-0.33,0.51-0.47c0.19-0.02,0.36-0.05,0.51-0.09c0.98-0.34,1.67-0.63,2.07-0.85c0.04-0.05,0.08-0.1,0.12-0.16
				c-0.08-0.03-0.15-0.05-0.21-0.08c-0.04-0.01-0.13-0.08-0.27-0.21c-0.05,0.12-0.1,0.17-0.14,0.15c-0.1-0.04-0.17-0.15-0.21-0.32
				c-0.18-0.79-0.11-1.61,0.2-2.46c0.04-0.1,0.1-0.17,0.2-0.21l0.06,0.06c0.01,0.28,0.05,0.51,0.11,0.68
				c0.23-0.16,0.8-0.15,1.74,0.03l0.2-0.54c-0.5-0.12-0.85-0.21-1.04-0.28c-0.19-0.07-0.33-0.28-0.44-0.62l0.06-0.06
				c0.11,0.05,0.22,0.12,0.32,0.19c0.44,0.12,0.87,0.22,1.29,0.29l0.32-0.86c-0.13-0.17-0.19-0.29-0.19-0.35l0.04-0.11
				c0.16-0.1,0.3-0.13,0.42-0.08c0.11,0.04,0.22,0.13,0.34,0.27C58.42,108.61,58.48,108.76,58.44,108.88z M55.84,113.32
				c-0.03,0.08-0.32,0.23-0.87,0.45c0.23,0.1,0.44,0.19,0.65,0.29l0.38-1.03c-0.03-0.01-0.07-0.01-0.12-0.01
				C55.88,113.12,55.87,113.23,55.84,113.32z M55.05,112.36c0.43,0,0.85-0.05,1.26-0.15l0.07-0.2c-0.54-0.11-0.83-0.17-0.87-0.19
				c-0.09-0.03-0.22-0.11-0.39-0.23C55.08,111.86,55.06,112.11,55.05,112.36z M56.53,111.59l0.22-0.59
				c-0.6-0.14-1.12-0.16-1.56-0.08c-0.02,0.15-0.03,0.31-0.04,0.47C55.38,111.47,55.84,111.53,56.53,111.59z M56.14,112.63l0.1-0.27
				c-0.28,0.01-0.57,0.05-0.89,0.13L56.14,112.63z M57.68,111.8c0.28,0.1,0.39,0.22,0.34,0.35c-0.04,0.1-0.18,0.13-0.44,0.1
				c-0.23-0.02-0.48,0.01-0.75,0.07l-0.15,0.4c0.34,0.07,0.59,0.08,0.76,0.02c0.17,0.08,0.29,0.2,0.37,0.35
				c0.43-0.38,0.83-0.86,1.22-1.44c-0.12-0.07-0.29-0.15-0.52-0.23c-0.27-0.1-0.67-0.21-1.18-0.32l-0.23,0.57
				C57.39,111.72,57.58,111.76,57.68,111.8z"/>
			<path d="M63.61,113.89c-0.01,0.11-0.07,0.26-0.17,0.47c-0.43,0.86-0.7,1.79-0.82,2.78c0.43-0.38,1.01-1,1.76-1.87
				c-0.45,0.96-1,1.88-1.65,2.77c-0.08,0.21-0.15,0.31-0.23,0.3c-0.1-0.01-0.19-0.15-0.27-0.41c-0.07-0.24-0.1-0.48-0.07-0.71
				c0.05-0.42,0.18-1.02,0.4-1.81c0.22-0.8,0.34-1.25,0.38-1.35c-0.12-0.1-0.24-0.24-0.38-0.42c-0.1-0.14-0.14-0.29-0.12-0.43
				c0.02-0.15,0.14-0.3,0.37-0.43l0.08,0.07c-0.02,0.15,0.01,0.26,0.09,0.34C63.42,113.47,63.64,113.71,63.61,113.89z M64.83,111.84
				c-0.04,0.29-0.14,0.43-0.3,0.41c-0.06-0.01-0.17-0.03-0.3-0.07c-0.18-0.01-0.39,0.01-0.64,0.06c0.26-0.19,0.42-0.37,0.5-0.53
				c-0.16-0.37-0.36-0.65-0.6-0.84l0-0.12c0.11-0.07,0.25-0.1,0.43-0.07c0.26,0.03,0.5,0.2,0.73,0.51
				C64.8,111.39,64.86,111.61,64.83,111.84z M65.83,115.98c0.07,0.12,0.09,0.32,0.06,0.59c-0.05,0.39-0.22,0.8-0.53,1.23
				c-0.19,0.27-0.38,0.39-0.56,0.37c-0.13-0.02-0.19-0.07-0.17-0.18c0.01-0.08,0.05-0.19,0.12-0.35c0.02-0.17,0.04-0.31,0.05-0.44
				c0.03,0.04,0.08,0.1,0.13,0.17c0.28-0.49,0.44-0.86,0.47-1.12c0.02-0.13,0.01-0.23-0.02-0.29c-0.03-0.08-0.04-0.14-0.03-0.2
				c0.01-0.08,0.05-0.11,0.11-0.1C65.6,115.67,65.73,115.78,65.83,115.98z M69.79,112.61c-0.01,0.06-0.24,0.12-0.69,0.18
				c-1.2,0.43-2.2,1.05-3.01,1.86c0.87-0.03,1.68-0.17,2.43-0.45c-0.08-0.15-0.19-0.3-0.33-0.46l0.04-0.09
				c0.1-0.05,0.21-0.06,0.33-0.05c0.09,0.01,0.17,0.05,0.25,0.12c0.32,0.28,0.54,0.56,0.68,0.84c0.08,0.17,0.1,0.35,0.08,0.54
				c-0.02,0.19-0.12,0.27-0.3,0.25c-0.1-0.01-0.28-0.27-0.56-0.78c-0.14,0.14-0.35,0.25-0.62,0.32c-0.75,0.18-1.45,0.32-2.09,0.42
				c-0.28,0.06-0.45,0.09-0.51,0.08c-0.18-0.02-0.27-0.15-0.27-0.38c0.02-0.15,0.05-0.25,0.1-0.32c0.07-0.06,0.18-0.14,0.35-0.23
				c0.59-0.54,1.28-1.07,2.09-1.59c-0.3,0.04-0.64,0.1-1.02,0.19c-0.42,0.1-0.7,0.15-0.85,0.13c-0.25-0.03-0.48-0.18-0.69-0.45
				c0.02-0.09,0.07-0.14,0.15-0.14c0.08,0.01,0.21,0.04,0.4,0.1c1-0.16,2.04-0.31,3.12-0.44c0.17-0.1,0.31-0.15,0.4-0.14
				c0.1,0.01,0.22,0.06,0.36,0.14C69.74,112.36,69.8,112.47,69.79,112.61z M66.82,118.11c-0.1-0.01-0.17-0.11-0.22-0.31
				c-0.04-0.13-0.05-0.24-0.04-0.33c0.01-0.08,0.06-0.22,0.15-0.42c0.07-0.34,0.13-0.65,0.16-0.93c-0.12-0.21-0.18-0.35-0.17-0.41
				c0.01-0.09,0.06-0.13,0.14-0.12c0.13,0.02,0.29,0.15,0.47,0.39c0.09,0.12,0.12,0.28,0.1,0.47c-0.03,0.29-0.13,0.72-0.27,1.29
				C67.07,118.01,66.96,118.13,66.82,118.11z M68.82,111.77c-0.03,0.21-0.15,0.3-0.36,0.28c-0.08-0.01-0.2-0.05-0.38-0.11
				c-0.13-0.02-0.3-0.06-0.51-0.11c0.18-0.06,0.32-0.11,0.43-0.15c-0.19-0.22-0.42-0.43-0.68-0.62l0.02-0.11
				c0.12-0.12,0.25-0.16,0.41-0.15c0.22,0.03,0.44,0.11,0.65,0.26C68.7,111.29,68.85,111.53,68.82,111.77z M68.86,116.12
				c-0.01,0.07-0.04,0.17-0.08,0.29c-0.15,0.4-0.26,0.83-0.31,1.3c-0.02,0.18,0,0.3,0.07,0.37c0.16,0.14,0.38,0.22,0.66,0.25
				c0.37,0.04,0.62,0.05,0.75,0.02c0.04-0.12,0.08-0.27,0.11-0.44c0.04,0.22,0.1,0.38,0.18,0.47c0.22,0.17,0.32,0.31,0.31,0.43
				c-0.01,0.1-0.16,0.17-0.44,0.22c-0.16,0.01-0.4,0-0.72-0.04c-0.63-0.08-1.04-0.23-1.21-0.47c-0.19-0.26-0.26-0.57-0.22-0.94
				c0.06-0.48,0.17-1.03,0.33-1.64c-0.12-0.25-0.17-0.41-0.17-0.48c0.01-0.1,0.11-0.13,0.31-0.11c0.08,0.01,0.18,0.1,0.29,0.28
				C68.82,115.83,68.87,115.99,68.86,116.12z"/>
			<path d="M74.24,111.9c0.01,0.1-0.07,0.34-0.25,0.73c-0.23,0.51-0.58,1.23-1.05,2.15c0.06,0.06,0.16,0.14,0.27,0.23
				c0.22,0.25,0.35,0.52,0.38,0.81c0.03,0.25,0.09,0.82,0.18,1.7c0.04,0.62,0.06,0.97,0.07,1.04c0.03,0.26-0.02,0.4-0.16,0.42
				c-0.13,0.01-0.25-0.05-0.35-0.2c-0.15-0.22-0.24-0.43-0.26-0.62c-0.01-0.11,0.01-0.25,0.06-0.4c0.01-0.79-0.01-1.48-0.08-2.05
				c-0.02-0.22-0.07-0.41-0.14-0.56c-0.03-0.07-0.07-0.11-0.13-0.11c-0.26,0.45-0.43,0.74-0.52,0.86c-0.11,0.15-0.19,0.23-0.27,0.23
				c-0.12,0.01-0.18-0.02-0.19-0.1c-0.01-0.05,0.02-0.15,0.09-0.3c0.65-1.46,1.15-2.76,1.5-3.89c-0.21-0.18-0.32-0.31-0.32-0.38
				l0.01-0.05c0.08-0.05,0.2-0.09,0.36-0.11c0.06-0.01,0.2,0.06,0.41,0.22C74.11,111.68,74.23,111.81,74.24,111.9z M74.7,114.01
				c0.03,0.26,0.06,0.87,0.1,1.83c0.06-0.08,0.11-0.2,0.16-0.38c-0.08,0.42-0.09,0.92-0.02,1.49c0.04,0.32,0.01,0.48-0.08,0.49
				c-0.08,0.01-0.17-0.03-0.26-0.11c-0.15-0.12-0.23-0.27-0.26-0.46c-0.03-0.26-0.05-0.53-0.06-0.8c-0.03-0.75-0.09-1.56-0.18-2.42
				c-0.14-0.16-0.22-0.28-0.22-0.33c-0.01-0.06,0.02-0.1,0.09-0.11c0.09-0.01,0.2,0.03,0.33,0.12
				C74.54,113.5,74.67,113.72,74.7,114.01z M76.98,111.02c0.01,0.11-0.13,0.44-0.43,0.98c0.41-0.23,0.83-0.46,1.27-0.67
				c0.24-0.23,0.4-0.36,0.49-0.37c0.09-0.01,0.23,0.02,0.41,0.09c0.18,0.06,0.28,0.13,0.28,0.2c0.01,0.08-0.15,0.23-0.49,0.42
				c-0.23,0.13-0.56,0.66-0.99,1.59c0.51,0.01,1.09,0.09,1.75,0.24c0.5,0.11,0.89,0.26,1.16,0.46c0.23,0.16,0.35,0.31,0.36,0.45
				c0.01,0.13-0.03,0.21-0.14,0.22c-0.15,0.02-0.69-0.15-1.62-0.5c-0.54-0.2-1.12-0.34-1.74-0.41c-0.17,0.28-0.38,0.61-0.64,0.98
				c-0.29,0.4-0.57,0.71-0.84,0.91c-0.19,0.13-0.4,0.21-0.64,0.24c-0.08,0.01-0.13-0.02-0.14-0.08c-0.01-0.08,0.06-0.18,0.22-0.29
				c0.54-0.4,1.04-1.01,1.5-1.83c-0.12-0.01-0.31-0.01-0.55,0c-0.12,0-0.19-0.06-0.2-0.17c-0.01-0.08,0.03-0.13,0.13-0.14
				c0.15-0.02,0.43-0.04,0.84-0.08c0.21-0.41,0.41-0.81,0.6-1.21c-0.36,0.16-0.72,0.37-1.09,0.62c-0.34,0.35-0.54,0.53-0.6,0.53
				c-0.1,0.01-0.18-0.04-0.22-0.15c-0.06-0.14-0.1-0.26-0.11-0.37c-0.01-0.08,0.07-0.22,0.25-0.42c0.17-0.25,0.34-0.67,0.53-1.26
				c-0.13-0.16-0.2-0.29-0.21-0.38l0.02-0.05c0.22-0.02,0.39-0.02,0.52,0.01C76.86,110.72,76.96,110.86,76.98,111.02z M78.32,114.43
				c0.01,0.1-0.06,0.21-0.22,0.34c-0.23,0.18-0.41,0.33-0.53,0.45c0.28-0.06,0.53-0.15,0.76-0.27c0.05-0.01,0.11,0.03,0.18,0.12
				c0.05,0.06,0.08,0.14,0.09,0.23c0.01,0.06-0.05,0.15-0.18,0.24c-0.17,0.19-0.33,0.41-0.5,0.64c0.54-0.23,0.86-0.35,0.95-0.36
				c0.1-0.01,0.24,0.08,0.42,0.26c0.14,0.13,0.22,0.24,0.23,0.33c0.01,0.06-0.04,0.17-0.14,0.33c-0.62,0.95-1.05,1.52-1.27,1.74
				c-0.53,0.44-1.15,0.7-1.85,0.78l-0.04-0.08c-0.01-0.06,0.07-0.12,0.23-0.18c0.64-0.28,1.21-0.79,1.72-1.53
				c0.33-0.49,0.52-0.88,0.55-1.16c-0.64,0.22-1.05,0.41-1.24,0.57c-0.25,0.21-0.44,0.32-0.55,0.33c-0.1,0.01-0.16-0.03-0.17-0.14
				c-0.03-0.26,0.01-0.45,0.13-0.56c0.17-0.05,0.29-0.11,0.37-0.19c0.09-0.11,0.31-0.39,0.65-0.85c-0.23,0.03-0.42,0.1-0.57,0.19
				c-0.25,0.15-0.4,0.22-0.44,0.23c-0.2,0.02-0.31-0.06-0.33-0.25c-0.03-0.23,0.03-0.35,0.17-0.37s0.26-0.07,0.36-0.16
				c0.24-0.22,0.48-0.47,0.72-0.75c-0.06-0.04-0.09-0.11-0.1-0.18c-0.01-0.1,0.04-0.15,0.15-0.16c0.1-0.01,0.19,0.02,0.27,0.09
				C78.24,114.18,78.3,114.29,78.32,114.43z"/>
			<path d="M87.4,109.19c0.03,0.08-0.05,0.18-0.23,0.31c-0.39,0.27-0.73,0.53-1,0.76c-0.32,0.25-0.88,1.27-1.69,3.06
				c-0.32,0.79-0.54,1.21-0.67,1.26c-0.11,0.04-0.18,0.01-0.22-0.09c-0.03-0.08-0.04-0.25-0.04-0.52c-0.02-0.29,0.03-0.48,0.12-0.57
				c0.06-0.05,0.15-0.16,0.29-0.32c0.35-0.72,0.74-1.45,1.18-2.17c-0.38,0.26-0.84,0.59-1.36,1c-0.17,0.13-0.3,0.21-0.4,0.25
				c-0.15,0.05-0.37,0.04-0.68-0.03c-0.21-0.05-0.33-0.11-0.35-0.18c-0.04-0.12,0.03-0.23,0.2-0.33l0.05,0.02
				c0.03,0.08,0.11,0.1,0.25,0.07c0.43-0.2,1.52-0.94,3.27-2.21c0.17-0.25,0.33-0.4,0.47-0.45c0.18-0.07,0.34-0.08,0.46-0.05
				C87.25,109.02,87.36,109.09,87.4,109.19z M85.42,109.07c0.07,0.2,0.04,0.33-0.11,0.38c-0.06,0.02-0.24,0.08-0.54,0.16
				c-0.21,0.08-0.4,0.17-0.57,0.29c0.23-0.2,0.36-0.42,0.41-0.63c-0.4-0.09-0.67-0.15-0.79-0.17c-0.16-0.02-0.27-0.08-0.34-0.17
				l0.01-0.09c0.49-0.17,0.79-0.27,0.89-0.28c0.22-0.04,0.44,0.01,0.65,0.15C85.27,108.88,85.39,108.99,85.42,109.07z M87.88,111.04
				c0.15,0.08,0.25,0.17,0.29,0.28c0.05,0.13,0.01,0.22-0.12,0.27c-0.12,0.04-0.34,0.02-0.66-0.06c-0.22-0.06-0.42-0.07-0.6-0.04
				c-0.14,0.15-0.18,0.29-0.14,0.42c0.04,0.1,0.11,0.18,0.23,0.23c0.15,0.05,0.24,0.13,0.28,0.24c0.03,0.08,0.03,0.17,0.02,0.28
				c-0.04,0.25-0.11,0.62-0.2,1.11c1.45,0.48,2.22,0.73,2.31,0.74c0.29,0.04,0.56,0.03,0.8-0.02c0.41-0.09,0.72-0.12,0.94-0.08
				c0.26,0.04,0.42,0.12,0.47,0.24c0.05,0.11-0.11,0.23-0.46,0.36c-0.62,0.23-1.1,0.38-1.43,0.45c-0.13-0.02-0.33-0.1-0.59-0.23
				c-1.37-0.7-2.09-1.03-2.15-1.01c-0.36,1.25-0.72,2.05-1.09,2.4c-0.37,0.34-0.72,0.57-1.06,0.69c-0.24,0.09-0.41,0.15-0.49,0.18
				l-0.07-0.07c0.61-0.37,1.06-0.82,1.35-1.33c0.34-0.62,0.6-1.31,0.78-2.09c-0.5-0.15-0.94-0.25-1.32-0.3
				c-0.22-0.03-0.34-0.08-0.36-0.14c-0.01-0.02-0.01-0.07,0-0.14c0.01-0.09,0.04-0.15,0.08-0.16c0.05-0.02,0.11-0.01,0.17,0.02
				c0.12,0.06,0.2,0.09,0.24,0.1c0.35,0.01,0.79,0.08,1.3,0.22c0.06-0.21,0.11-0.57,0.15-1.08c-0.12-0.16-0.2-0.29-0.24-0.4
				c-0.05-0.14-0.01-0.34,0.11-0.6c-0.2,0.01-0.37,0.04-0.5,0.09c-0.11,0.04-0.18,0.04-0.2-0.02c-0.02-0.05,0.01-0.12,0.1-0.19
				c0.15-0.14,0.33-0.25,0.53-0.33c0.42-0.15,0.74-0.22,0.96-0.19C87.51,110.9,87.71,110.96,87.88,111.04z"/>
			<path d="M93.15,104.5c0.04,0.06,0.06,0.17,0.05,0.34c-0.01,0.17-0.03,0.35-0.05,0.54c0.13-0.04,0.38-0.05,0.74-0.02
				c1.61,0.12,2.54,0.18,2.81,0.18c0.23,0,0.62-0.09,1.18-0.25c0.24-0.07,0.51-0.06,0.79,0.04c0.15,0.05,0.24,0.11,0.29,0.17
				c0.05,0.08-0.03,0.19-0.23,0.33c-0.38,0.25-0.82,0.45-1.33,0.58c-0.26,0.07-0.74-0.01-1.45-0.24c-0.48-0.16-1.29-0.31-2.42-0.45
				c-0.12-0.01-0.24,0-0.37,0.03c-0.04,2.13-0.18,3.58-0.41,4.33c-0.19,0.61-0.43,1-0.71,1.19c-0.09,0.06-0.19,0.11-0.28,0.14
				l-0.06-0.05c0.23-0.4,0.39-0.86,0.48-1.38c0.23-1.31,0.35-2.97,0.36-4.99c-0.1,0-0.2-0.01-0.3-0.01l-0.06-0.07
				c0.07-0.28,0.15-0.46,0.24-0.52c0.07-0.05,0.21-0.06,0.4-0.03C92.99,104.38,93.1,104.43,93.15,104.5z M95.29,106.61
				c0.05,0.07,0.03,0.15-0.04,0.24c-0.66,0.74-1.03,1.14-1.12,1.21c-0.13,0.08-0.32,0.14-0.58,0.16c-0.19,0.02-0.31-0.01-0.36-0.09
				c-0.05-0.07-0.04-0.12,0.02-0.16c0.02-0.01,0.15-0.07,0.39-0.16c0.46-0.53,0.75-0.89,0.88-1.07c0.05-0.1,0.1-0.17,0.15-0.21
				c0.05-0.04,0.15-0.05,0.29-0.04C95.12,106.49,95.24,106.53,95.29,106.61z M96.25,107.76c-0.09,0.11-0.21,0.26-0.35,0.45
				c-0.23,0.88-0.43,1.86-0.59,2.92c0.64-0.64,1.17-1.27,1.6-1.91c-0.48-0.07-0.73-0.12-0.77-0.18c-0.04-0.06-0.02-0.11,0.05-0.16
				c0.15-0.1,0.33-0.15,0.57-0.18c0.96-0.07,1.65,0.22,2.07,0.86c0.05,0.08,0.08,0.18,0.08,0.3c0,0.1-0.03,0.17-0.08,0.2
				c-0.05,0.04-0.13,0.04-0.21,0.03c-0.18,0.01-0.46,0.02-0.86,0.05c0.16-0.14,0.26-0.25,0.28-0.35c-0.19-0.15-0.41-0.27-0.64-0.34
				c-0.52,0.9-1.12,1.7-1.79,2.41c-0.14,0.23-0.26,0.37-0.35,0.43c-0.1,0.06-0.25,0.08-0.47,0.06c-0.13-0.01-0.24-0.09-0.34-0.23
				c-0.1-0.15-0.07-0.28,0.08-0.38c0.11-0.07,0.2-0.19,0.25-0.36c0.15-0.5,0.3-1.29,0.43-2.38c-0.6,0.71-0.95,1.1-1.06,1.17
				c-0.12,0.08-0.29,0.12-0.5,0.11c-0.16,0-0.27-0.04-0.32-0.11c-0.04-0.05-0.02-0.1,0.04-0.14c0.05-0.04,0.16-0.07,0.31-0.1
				c0.66-0.76,1.19-1.41,1.61-1.95c0.03-0.22,0.09-0.36,0.2-0.43c0.06-0.04,0.17-0.07,0.32-0.09c0.24-0.02,0.39,0.01,0.44,0.08
				C96.32,107.61,96.31,107.69,96.25,107.76z"/>
			<path d="M99.35,102.15c0.17,0.16,0.35,0.51,0.54,1.05c0.09,0.26,0.11,0.42,0.05,0.48c-0.07,0.08-0.18,0.07-0.33,0
				c-0.13-0.07-0.23-0.13-0.31-0.21c-0.09-0.08-0.21-0.42-0.37-1c-0.06-0.19-0.15-0.36-0.28-0.5c-0.07-0.07-0.11-0.13-0.13-0.19
				l0.08-0.03C98.95,101.87,99.2,102.01,99.35,102.15z M100.65,98.84c0.19,0.18,0.23,0.34,0.1,0.47c-0.09,0.1-0.23,0.13-0.41,0.11
				c-0.1,0.1-0.23,0.22-0.37,0.38c0.04-0.19,0.07-0.36,0.09-0.5c-0.25,0.01-0.46,0.04-0.62,0.08c-0.22,0.06-0.38,0.07-0.47,0.03
				l-0.02-0.07c0.1-0.17,0.19-0.3,0.29-0.41c0.2-0.21,0.49-0.32,0.86-0.32C100.31,98.61,100.49,98.68,100.65,98.84z M103.4,97.04
				c0.29-0.01,0.5,0.05,0.64,0.18c0.1,0.1,0.06,0.26-0.14,0.48c-0.12,0.49-0.29,0.86-0.53,1.11c-0.1,0.1-0.23,0.2-0.39,0.29
				c0.22-0.61,0.27-1.08,0.14-1.42c-0.26,0.13-0.47,0.29-0.64,0.47c-0.95,1-1.64,1.96-2.09,2.86c-0.11,0.22-0.23,0.4-0.36,0.54
				c-0.37,0.4-0.58,0.58-0.63,0.54c-0.03-0.03-0.02-0.11,0.03-0.23c0.09-0.23,0.2-0.49,0.35-0.76c0.53-1.03,1.38-2.18,2.55-3.47
				c0.07-0.1,0.15-0.2,0.24-0.29C102.74,97.14,103.02,97.05,103.4,97.04z M101.35,101.23c0.14,0.13,0.26,0.47,0.37,1
				c0.14,0.73,0.17,1.28,0.1,1.66c-0.04,0.17-0.11,0.3-0.21,0.4c-0.08,0.09-0.17,0.09-0.25,0.01c-0.05-0.04-0.09-0.16-0.14-0.36
				c-0.04-0.12-0.1-0.23-0.17-0.33c0.12,0.08,0.22,0.08,0.31,0c-0.01-0.74-0.2-1.45-0.55-2.14c-0.09,0.04-0.16,0.07-0.22,0.07
				c-0.12,0.01-0.2,0-0.24-0.04c-0.03-0.03,0.02-0.11,0.14-0.25c0.05-0.05,0.15-0.1,0.3-0.14
				C101.03,101.07,101.22,101.11,101.35,101.23z M102.16,99.59c0.04,0.04,0.11,0.12,0.22,0.26c0.08,0.12,0.24,0.29,0.47,0.51
				c0.09,0.09,0.17,0.12,0.22,0.09c0.19-0.15,0.32-0.26,0.39-0.34c0.02-0.16,0.07-0.28,0.15-0.36c0.04-0.05,0.16-0.1,0.34-0.15
				c0.22-0.06,0.37-0.05,0.44,0.02c0.13,0.12,0.12,0.25-0.02,0.4c-0.1,0.1-0.21,0.25-0.35,0.43c-0.2,0.41-0.43,0.81-0.69,1.21
				c0.14-0.36,0.2-0.65,0.19-0.85c-0.27,0.13-0.46,0.21-0.56,0.23c-0.15,0.03-0.27,0.01-0.35-0.06c-0.14-0.13-0.44-0.44-0.91-0.91
				c-0.22,0.12-0.37,0.14-0.43,0.08c-0.06-0.06-0.06-0.14-0.01-0.26c0.02-0.06,0.06-0.12,0.1-0.17c0.04-0.04,0.15-0.09,0.34-0.13
				C101.94,99.52,102.09,99.53,102.16,99.59z M104.59,101.71c0.07,0.07,0.09,0.2,0.05,0.4c0.1,0.51,0.18,1.03,0.24,1.57
				c0.66-0.7,1.23-1.31,1.72-1.83c0.02-0.09,0.07-0.17,0.15-0.26c0.12-0.13,0.38-0.23,0.76-0.3c0.18-0.04,0.32,0,0.43,0.1
				c0.1,0.1,0.09,0.21-0.03,0.34c-0.1,0.1-0.42,0.3-0.95,0.59c-0.6,0.56-1.09,1.03-1.45,1.42c-0.55,0.58-0.98,1.24-1.29,1.98
				c-0.21,0.42-0.34,0.66-0.4,0.71c-0.13,0.14-0.35,0.23-0.64,0.26c-0.21,0.02-0.35,0-0.42-0.06c-0.1-0.1-0.12-0.19-0.04-0.27
				c0.04-0.05,0.18-0.06,0.41-0.04c0.75-1.12,1.16-1.79,1.24-2c0.07-0.19-0.05-0.73-0.36-1.62c-0.39,0.64-0.65,1.02-0.76,1.15
				c-0.15,0.16-0.42,0.19-0.81,0.07c-0.06-0.05-0.05-0.12,0.03-0.2c0.03-0.03,0.14-0.06,0.33-0.08c0.33-0.5,0.61-1.05,0.83-1.64
				c0.01-0.15,0.04-0.25,0.09-0.3c0.07-0.07,0.24-0.11,0.54-0.12C104.38,101.59,104.5,101.63,104.59,101.71z"/>
			<path d="M106.07,90.37c0.1,0.06,0.13,0.18,0.08,0.38c-0.02,0.46-0.05,0.86-0.09,1.22c0.31-0.18,0.55-0.29,0.72-0.34
				c0.22-0.07,0.39-0.09,0.51-0.06c0.06-0.22,0.09-0.42,0.08-0.57c-0.01-0.09,0-0.16,0.02-0.19c0.04-0.08,0.19-0.16,0.45-0.24
				c0.1-0.03,0.19-0.02,0.27,0.02c0.06,0.03,0.07,0.18,0.03,0.45c-0.07,0.42-0.08,0.72-0.02,0.9c0.32,0.2,0.66,0.4,1.01,0.6
				c0.2-0.47,0.47-1.02,0.81-1.65c-0.36,0.04-0.7,0.13-1.02,0.27c0.32-0.3,0.68-0.53,1.07-0.71c0.17-0.07,0.38-0.2,0.64-0.37
				c0.18-0.11,0.33-0.13,0.46-0.06c0.11,0.06,0.11,0.17,0.02,0.34c-0.06,0.1-0.17,0.25-0.32,0.46c-0.28,0.36-0.55,0.77-0.8,1.21
				c-0.13,0.23-0.25,0.49-0.37,0.78c0.96,0.55,1.69,1.03,2.21,1.44c0.36,0.31,0.57,0.59,0.64,0.84c0.09,0.33,0.11,0.53,0.06,0.61
				c-0.04,0.06-0.11,0.09-0.23,0.09c-0.6,0.54-1.27,0.86-2,0.98c0.59-0.37,0.95-0.67,1.09-0.92c0.08-0.14,0.18-0.34,0.31-0.59
				c-0.54-0.7-1.31-1.34-2.31-1.91c-0.34,0.86-0.55,1.7-0.62,2.54c-0.04,0.49-0.09,0.77-0.14,0.86c-0.1,0.17-0.28,0.36-0.54,0.55
				c-0.23,0.18-0.39,0.24-0.46,0.2c-0.12-0.07-0.14-0.16-0.08-0.27c0.02-0.03,0.09-0.06,0.21-0.09c0.39-1.85,0.77-3.21,1.13-4.06
				c-0.26-0.14-0.52-0.27-0.79-0.39c-0.03,0.68-0.1,1.36-0.23,2.05c0.07-1.03,0.03-1.76-0.13-2.2c-0.33,1.12-0.53,1.73-0.59,1.84
				c-0.13,0.23-0.31,0.38-0.52,0.47c-0.2,0.08-0.35,0.1-0.45,0.04c-0.07-0.04-0.08-0.09-0.04-0.16c0.03-0.04,0.15-0.12,0.38-0.23
				c0.23-0.77,0.43-1.51,0.58-2.21c-0.16-0.04-0.32-0.08-0.49-0.13c-0.13,0.08-0.21,0.13-0.26,0.15c-0.07,0.03-0.18,0.02-0.33-0.02
				c-0.17,0.88-0.36,1.51-0.58,1.88c0.14-0.97,0.11-2.02-0.08-3.16c-0.12,0.04-0.25,0.07-0.41,0.11l-0.04-0.05
				c0.05-0.16,0.13-0.35,0.25-0.56C105.59,90.31,105.89,90.26,106.07,90.37z"/>
			<path d="M109.08,85.98c0.15-0.08,0.27-0.1,0.37-0.07c0.07,0.02,0.11,0.06,0.14,0.11c0.02,0.05,0.01,0.13-0.02,0.24
				c0.06,0.22,0.09,0.44,0.1,0.66c-0.09-0.16-0.17-0.27-0.25-0.34c-0.24,0.29-0.42,0.45-0.54,0.48c-0.08,0.02-0.19,0.01-0.33-0.03
				c-0.03-0.03-0.04-0.06-0.04-0.11c0.12-0.12,0.22-0.27,0.28-0.43C108.88,86.21,108.98,86.04,109.08,85.98z M109.38,82.61
				c0.17,0.12,0.35,0.29,0.56,0.52c0.21,0.12,0.3,0.23,0.27,0.34c-0.03,0.12-0.16,0.22-0.37,0.31c-0.26,0.1-0.5,0.12-0.73,0.06
				c-0.14-0.04-0.24-0.12-0.3-0.24c0.03-0.09,0.08-0.13,0.14-0.11c0.13,0.04,0.34-0.02,0.62-0.19
				C109.54,83.1,109.48,82.87,109.38,82.61z M109.46,81.08c0.14-0.05,0.28-0.06,0.4-0.02c0.13,0.04,0.23,0.19,0.3,0.45
				c0.23,0.62,0.39,1.29,0.49,2.01c-0.02-0.51,0.01-1.11,0.08-1.81c-0.04-0.29-0.05-0.49-0.02-0.59c0.04-0.15,0.15-0.3,0.3-0.45
				c0.14-0.13,0.26-0.19,0.35-0.16c0.1,0.03,0.13,0.14,0.07,0.33c-0.04,0.15-0.1,0.32-0.17,0.51c-0.11,0.54-0.17,1.11-0.19,1.72
				c0.2,0,0.33,0.01,0.4,0.03c0.07,0.02,0.17,0.14,0.32,0.36c-0.03-0.39-0.02-0.76,0.04-1.12c0.03-0.21,0.05-0.33,0.06-0.37
				c0.03-0.12,0.13-0.21,0.28-0.28c0.22-0.1,0.36-0.13,0.43-0.12c0.06,0.02,0.21,0.06,0.47,0.14c0.56,0.13,1.05,0.26,1.48,0.39
				c0.41,0.12,0.73,0.24,0.97,0.37c0.23,0.12,0.31,0.26,0.27,0.42c-0.04,0.14-0.26,0.18-0.65,0.11c-0.33-0.15-0.68-0.28-1.05-0.39
				c-0.57-0.17-1.16-0.3-1.76-0.38c-0.08,0.36-0.15,0.72-0.23,1.08c-0.07,0.19-0.13,0.28-0.18,0.27c-0.03-0.02-0.07-0.05-0.1-0.07
				c0.1,0.23,0.17,0.44,0.22,0.63c0.15-0.04,0.3-0.06,0.47-0.03c0.1-0.5,0.14-0.89,0.12-1.17c0.1-0.21,0.22-0.3,0.36-0.26
				c0.05,0.02,0.08,0.11,0.08,0.28c-0.01,0.26,0.05,0.62,0.17,1.08c-0.07-0.22-0.15-0.38-0.23-0.46l-0.17,0.67
				c0.15,0.05,0.31,0.1,0.47,0.15c0.11-0.39,0.17-0.67,0.18-0.83c0-0.21,0-0.37,0-0.47c0.09-0.19,0.22-0.28,0.38-0.27
				c0.08,0.03,0.13,0.15,0.14,0.35c0,0.14,0.11,0.59,0.33,1.36c0.15-0.51,0.22-0.83,0.2-0.96c-0.02-0.13-0.02-0.24,0-0.31
				c0.15-0.2,0.3-0.28,0.44-0.24c0.12,0.04,0.13,0.21,0.04,0.51l-0.36,1.23c0.15,0.13,0.21,0.23,0.2,0.29
				c-0.03,0.1-0.14,0.16-0.33,0.19c-0.11,0.01-0.22,0-0.33-0.03c-0.21-0.06-0.37-0.12-0.48-0.16c-0.68-0.28-1.11-0.45-1.3-0.5
				c-0.12-0.03-0.22-0.03-0.31,0.02c-0.04,0.02-0.1,0.02-0.18,0c-0.07-0.02-0.13-0.09-0.18-0.21c-0.07-0.18-0.25-0.48-0.52-0.89
				c-0.05-0.02-0.11-0.04-0.16-0.06c0.01,0.35,0.05,0.75,0.11,1.18c0.06,0.35,0.08,0.57,0.06,0.65c-0.09,0.3-0.27,0.48-0.53,0.55
				c-0.1-0.04-0.16-0.13-0.17-0.27c0.05-0.07,0.11-0.15,0.2-0.25c-0.02-0.68-0.07-1.25-0.14-1.7c-0.3-0.85-0.65-1.48-1.05-1.91
				c-0.13,0.03-0.26,0.05-0.39,0.08l-0.06-0.06c0-0.13,0.01-0.21,0.02-0.25C109.15,81.26,109.27,81.15,109.46,81.08z M111.09,86.77
				c0.05-0.15,0.17-0.28,0.37-0.36c0.17-0.07,0.3-0.09,0.38-0.07c0.09,0.03,0.21,0.1,0.39,0.22c0.25,0.19,0.42,0.29,0.49,0.32
				c0.08,0.02,0.29-0.04,0.64-0.2c0.22-0.1,0.42-0.13,0.58-0.08c0.13,0.04,0.33,0.26,0.6,0.66c0.15-0.43,0.26-0.74,0.32-0.94
				c0.32-0.86,0.65-1.58,1-2.17c0.56-0.94,0.86-1.49,0.91-1.64c0.04-0.15,0.09-0.36,0.13-0.64c0.05-0.32,0.09-0.53,0.12-0.64
				c0.04-0.15,0.11-0.28,0.21-0.4c0.08-0.1,0.18-0.14,0.3-0.1c0.11,0.03,0.16,0.22,0.15,0.57c-0.03,0.69-0.09,1.17-0.17,1.45
				c-0.03,0.11-0.29,0.49-0.76,1.15c-0.65,0.89-1.17,1.87-1.58,2.95c-0.13,0.43-0.22,0.78-0.27,1.06c-0.01,0.23-0.02,0.38-0.04,0.45
				c-0.04,0.14-0.14,0.24-0.3,0.33c-0.09,0.05-0.19,0.06-0.29,0.03c-0.1-0.03-0.15-0.1-0.13-0.21c0.11-0.11,0.19-0.22,0.23-0.3
				c0.03-0.2,0.02-0.37-0.05-0.49c-0.18-0.32-0.37-0.5-0.57-0.56c-0.09-0.03-0.25,0.02-0.49,0.15c-0.22,0.12-0.42,0.15-0.62,0.09
				c-0.15-0.04-0.46-0.19-0.94-0.43c-0.02,0.23-0.04,0.38-0.06,0.45c-0.05,0.17-0.19,0.29-0.41,0.36c-0.17,0.05-0.28,0.07-0.35,0.05
				c-0.08-0.02-0.1-0.09-0.07-0.19c0.05-0.06,0.12-0.12,0.21-0.2C111.03,87.08,111.06,86.87,111.09,86.77z M113.9,83.51
				c-0.13,0.43-0.24,0.76-0.34,1l0.72,0.23C114.26,84.28,114.13,83.87,113.9,83.51z"/>
		</g>
	</g>
</g>
</svg>
